<svg width="19" height="21" viewBox="0 0 19 21" fill="none" xmlns="http://www.w3.org/2000/svg">
<path d="M1.51953 14.8619L1.54757 5.81185L9.82534 1" stroke="black" stroke-width="1.2" stroke-miterlimit="10" stroke-linecap="round" stroke-linejoin="round"/>
<path d="M9.8252 1L18.1025 5.81185L18.1305 14.8619" stroke="black" stroke-width="1.2" stroke-miterlimit="10" stroke-linecap="round" stroke-linejoin="round"/>
<path d="M9.82534 14.144V10.5897L1.54757 5.81152L1.51953 14.8615L7.5862 18.3396" stroke="black" stroke-width="1.2" stroke-miterlimit="10" stroke-linecap="round" stroke-linejoin="round"/>
<path d="M18.1305 14.8615L18.1025 5.81152L9.8252 10.5897V13.7861" stroke="black" stroke-width="1.2" stroke-miterlimit="10" stroke-linecap="round" stroke-linejoin="round"/>
<path d="M9.82514 10.5901L18.1025 5.81185L9.82514 1L1.54736 5.81185L9.82514 10.5901Z" stroke="black" stroke-width="1.2" stroke-miterlimit="10" stroke-linecap="round" stroke-linejoin="round"/>
<path d="M8.27043 19.9829C8.49748 20.1282 9.02491 20.3557 9.57897 20.3557C10.6058 20.3557 10.924 19.7012 10.9146 19.2107C10.9057 18.3838 10.1606 18.0292 9.3879 18.0292H8.94269V17.4294H9.3879C9.96953 17.4294 10.7058 17.1294 10.7058 16.4296C10.7058 15.9568 10.4059 15.5392 9.66961 15.5392C9.19683 15.5392 8.74274 15.748 8.48813 15.9297L8.27931 15.3481C8.58811 15.1211 9.18795 14.8936 9.82424 14.8936C10.9875 14.8936 11.5145 15.584 11.5145 16.3021C11.5145 16.9108 11.151 17.4289 10.4241 17.6924V17.7106C11.151 17.8559 11.742 18.4011 11.742 19.228C11.742 20.173 11.0057 20.9999 9.58832 20.9999C8.92494 20.9999 8.34331 20.7911 8.05273 20.6L8.2709 19.982L8.27043 19.9829Z" fill="black"/>
<path d="M13.0229 14.8575C13.5046 14.7847 14.0769 14.7305 14.7043 14.7305C15.84 14.7305 16.6491 14.994 17.185 15.4938C17.7301 15.9937 18.0483 16.7024 18.0483 17.6928C18.0483 18.6832 17.7395 19.5101 17.1667 20.0735C16.5945 20.6458 15.6494 20.955 14.4586 20.955C13.8952 20.955 13.4224 20.9279 13.0229 20.8822V14.8571V14.8575ZM13.8134 20.2734C14.0133 20.3099 14.3039 20.3188 14.6132 20.3188C16.3034 20.3188 17.2214 19.3737 17.2214 17.7199C17.2303 16.2749 16.4127 15.3574 14.7407 15.3574C14.332 15.3574 14.0227 15.3939 13.8139 15.4392V20.2734H13.8134Z" fill="black"/>
</svg>
