<svg width="22" height="20" viewBox="0 0 22 20" fill="none" xmlns="http://www.w3.org/2000/svg">
<g clip-path="url(#clip0_2039_1211)">
<path d="M4.14517 0H17.393C19.4016 0 21.0255 1.62393 21.0255 3.63248V16.3675C21.0255 18.3761 19.4016 20 17.393 20H4.14517C2.13663 20 0.512695 18.3761 0.512695 16.3675V3.63248C0.512695 1.62393 2.13663 0 4.14517 0Z" fill="#001E36"/>
<path d="M5.12793 14.0261V5.23124C5.12793 5.17141 5.15357 5.13722 5.2134 5.13722C5.3587 5.13722 5.49545 5.13722 5.69203 5.12867C5.89716 5.12013 6.11084 5.12013 6.3416 5.11158C6.57237 5.10303 6.82024 5.10303 7.08519 5.09448C7.35015 5.08594 7.60656 5.08594 7.86297 5.08594C8.56383 5.08594 9.14502 5.17141 9.62366 5.35089C10.051 5.49619 10.4442 5.73551 10.769 6.05175C11.0425 6.32525 11.2561 6.65859 11.3929 7.02611C11.5211 7.38508 11.5895 7.7526 11.5895 8.13722C11.5895 8.87226 11.4185 9.4791 11.0766 9.95773C10.7348 10.4364 10.2561 10.7953 9.70058 11.0005C9.11938 11.2141 8.47836 11.2911 7.7775 11.2911C7.57237 11.2911 7.43562 11.2911 7.35015 11.2825C7.26468 11.274 7.14502 11.274 6.98263 11.274V14.0176C6.99118 14.0774 6.94844 14.1287 6.88861 14.1372C6.88007 14.1372 6.87152 14.1372 6.85443 14.1372H5.23049C5.16212 14.1372 5.12793 14.103 5.12793 14.0261ZM6.99118 6.78679V9.65859C7.11084 9.66713 7.22195 9.67568 7.32451 9.67568H7.7775C8.11084 9.67568 8.44417 9.6244 8.76041 9.52184C9.03391 9.44491 9.27323 9.28252 9.46126 9.06884C9.64075 8.85517 9.72622 8.56457 9.72622 8.1885C9.73477 7.92354 9.66639 7.65859 9.52964 7.42782C9.38434 7.2056 9.17921 7.03466 8.93135 6.94064C8.61511 6.81243 8.27323 6.76115 7.9228 6.7697C7.70058 6.7697 7.504 6.7697 7.34161 6.77825C7.17067 6.7697 7.05101 6.77825 6.99118 6.78679Z" fill="#31A8FF"/>
<path d="M16.9228 9.13768C16.6664 9.00093 16.3929 8.90691 16.1023 8.84708C15.7861 8.7787 15.4698 8.73597 15.145 8.73597C14.9741 8.72742 14.7946 8.75306 14.6322 8.7958C14.5211 8.82144 14.4271 8.88127 14.3673 8.96674C14.3245 9.03511 14.2989 9.12058 14.2989 9.19751C14.2989 9.27443 14.3331 9.35135 14.3844 9.41973C14.4613 9.51375 14.5638 9.59067 14.675 9.6505C14.8715 9.75306 15.0767 9.84708 15.2818 9.93255C15.7433 10.0864 16.1878 10.3001 16.598 10.5565C16.8801 10.736 17.1109 10.9753 17.2732 11.2659C17.41 11.5394 17.4784 11.8385 17.4698 12.1462C17.4784 12.5479 17.3587 12.9496 17.1365 13.283C16.8972 13.6249 16.5638 13.8898 16.1792 14.0437C15.7604 14.2231 15.2476 14.3172 14.6322 14.3172C14.2391 14.3172 13.8544 14.283 13.4698 14.2061C13.1707 14.1548 12.8715 14.0608 12.598 13.9325C12.5382 13.8984 12.4955 13.8385 12.504 13.7702V12.283C12.504 12.2573 12.5126 12.2231 12.5382 12.2061C12.5638 12.189 12.5895 12.1975 12.6151 12.2146C12.9485 12.4112 13.2989 12.5479 13.675 12.6334C13.9997 12.7189 14.3416 12.7616 14.6835 12.7616C15.0083 12.7616 15.2391 12.7189 15.3929 12.642C15.5297 12.5821 15.6237 12.4368 15.6237 12.283C15.6237 12.1633 15.5553 12.0522 15.4185 11.9411C15.2818 11.83 14.9997 11.7018 14.5809 11.5394C14.145 11.3855 13.7433 11.1804 13.3673 10.924C13.1023 10.736 12.8801 10.4881 12.7177 10.1975C12.5809 9.924 12.5126 9.62486 12.5211 9.32571C12.5211 8.95819 12.6237 8.60776 12.8117 8.29152C13.0254 7.94964 13.3416 7.67614 13.7091 7.5052C14.1109 7.30007 14.6151 7.20605 15.222 7.20605C15.5724 7.20605 15.9314 7.2317 16.2818 7.28298C16.5382 7.31717 16.7861 7.38554 17.0168 7.47956C17.051 7.48811 17.0852 7.52229 17.1023 7.55648C17.1109 7.59067 17.1194 7.62486 17.1194 7.65905V9.05221C17.1194 9.0864 17.1023 9.12058 17.0767 9.13768C16.9997 9.15477 16.957 9.15477 16.9228 9.13768Z" fill="#31A8FF"/>
</g>
<defs>
<clipPath id="clip0_2039_1211">
<rect width="20.5128" height="20" fill="white" transform="translate(0.512695)"/>
</clipPath>
</defs>
</svg>
