<svg width="21" height="20" viewBox="0 0 21 20" fill="none" xmlns="http://www.w3.org/2000/svg">
<g clip-path="url(#clip0_2039_1186)">
<path d="M3.63248 0H16.8803C18.8889 0 20.5128 1.62393 20.5128 3.63248V16.3675C20.5128 18.3761 18.8889 20 16.8803 20H3.63248C1.62393 20 0 18.3761 0 16.3675V3.63248C0 1.62393 1.62393 0 3.63248 0Z" fill="#330000"/>
<path d="M9.91456 11.9655H6.73507L6.0855 13.974C6.06841 14.0509 6.00003 14.1022 5.92311 14.0937H4.31627C4.22225 14.0937 4.19661 14.0424 4.22225 13.9398L6.97439 6.01674C7.00003 5.93127 7.02567 5.83726 7.05986 5.73469C7.09405 5.5552 7.11114 5.36717 7.11114 5.17914C7.1026 5.1364 7.13678 5.09367 7.17952 5.08512H9.39319C9.46157 5.08512 9.49576 5.11076 9.50431 5.1535L12.624 13.9569C12.6496 14.0509 12.624 14.0937 12.5385 14.0937H10.7522C10.6923 14.1022 10.6325 14.0595 10.6154 13.9997L9.91456 11.9655ZM7.2308 10.2304H9.40174C9.35046 10.0509 9.28208 9.83726 9.20516 9.61503C9.12824 9.38426 9.05131 9.1364 8.97439 8.87999C8.88892 8.61503 8.812 8.35862 8.72653 8.09367C8.64106 7.82871 8.56413 7.58085 8.49576 7.33298C8.42738 7.09367 8.36755 6.87144 8.30772 6.66632H8.29063C8.21371 7.03384 8.11969 7.40136 8.00003 7.76888C7.87183 8.17914 7.74362 8.60649 7.60687 9.03384C7.48721 9.46973 7.35901 9.87144 7.2308 10.2304ZM14.5299 6.58085C14.2479 6.58939 13.9744 6.47828 13.7693 6.2817C13.5727 6.06803 13.4701 5.78597 13.4787 5.49538C13.4701 5.20478 13.5812 4.93127 13.7864 4.73469C13.9915 4.53811 14.265 4.43555 14.547 4.43555C14.8804 4.43555 15.1368 4.53811 15.3248 4.73469C15.5129 4.93982 15.6154 5.21332 15.6069 5.49538C15.6154 5.78597 15.5129 6.06803 15.3077 6.2817C15.1111 6.48683 14.8205 6.59794 14.5299 6.58085ZM13.5727 13.9997V7.41845C13.5727 7.33298 13.6069 7.29879 13.6838 7.29879H15.3761C15.453 7.29879 15.4872 7.34153 15.4872 7.41845V13.9997C15.4872 14.0937 15.453 14.1364 15.3761 14.1364H13.7009C13.6154 14.1364 13.5727 14.0851 13.5727 13.9997Z" fill="#FF9A00"/>
</g>
<defs>
<clipPath id="clip0_2039_1186">
<rect width="20.5128" height="20" fill="white"/>
</clipPath>
</defs>
</svg>
