<svg width="21" height="20" viewBox="0 0 21 20" fill="none" xmlns="http://www.w3.org/2000/svg">
<g clip-path="url(#clip0_2039_1199)">
<path d="M3.63248 0H16.8803C18.8889 0 20.5128 1.62393 20.5128 3.63248V16.3675C20.5128 18.3761 18.8889 20 16.8803 20H3.63248C1.62393 20 0 18.3761 0 16.3675V3.63248C0 1.62393 1.62393 0 3.63248 0Z" fill="#00005B"/>
<path d="M8.23976 11.966H5.06027L4.4107 13.9831C4.3936 14.06 4.32523 14.1113 4.2483 14.1028H2.64147C2.54745 14.1028 2.52181 14.0515 2.54745 13.9489L5.29959 6.06004C5.32523 5.97457 5.35087 5.89764 5.38506 5.79508C5.41924 5.61559 5.43634 5.42756 5.43634 5.23952C5.42779 5.19679 5.46198 5.15405 5.50471 5.14551H5.53036H7.71839C7.77822 5.14551 7.82095 5.17115 7.8295 5.21388L10.9492 13.9318C10.9748 14.0259 10.9492 14.0686 10.8637 14.0686H9.07736C9.01754 14.0771 8.95771 14.0344 8.94061 13.9746L8.23976 11.9233V11.966ZM5.556 10.2652H7.72694C7.67565 10.0857 7.60728 9.872 7.53036 9.64978C7.45343 9.41901 7.37651 9.17115 7.29959 8.91474C7.21412 8.64978 7.13719 8.39337 7.05172 8.12841C6.96625 7.86346 6.88933 7.61559 6.82095 7.36773C6.75258 7.12841 6.69275 6.90619 6.63292 6.70106H6.61583C6.5389 7.06858 6.44489 7.43611 6.32523 7.80363C6.19702 8.21388 6.06882 8.64123 5.93207 9.06858C5.82095 9.50448 5.6842 9.90619 5.556 10.2652Z" fill="#9999FF"/>
<path d="M15.9838 11.1971H13.2744C13.3086 11.4621 13.3941 11.727 13.5394 11.9578C13.6932 12.1886 13.9069 12.3681 14.1633 12.4706C14.5052 12.6159 14.8812 12.6928 15.2573 12.6843C15.5564 12.6757 15.8556 12.6501 16.1462 12.5903C16.4111 12.5561 16.6676 12.4877 16.9069 12.3937C16.9496 12.3595 16.9753 12.3766 16.9753 12.4621V13.7698C16.9753 13.804 16.9667 13.8381 16.9582 13.8723C16.9411 13.898 16.924 13.9151 16.8983 13.9322C16.6248 14.0518 16.3428 14.1373 16.0436 14.1886C15.6419 14.2655 15.2402 14.2997 14.83 14.2911C14.1804 14.2911 13.6334 14.1886 13.1889 13.992C12.7701 13.8125 12.4026 13.5304 12.112 13.18C11.8385 12.8467 11.6419 12.4706 11.5223 12.0604C11.4026 11.6587 11.3428 11.2398 11.3428 10.8125C11.3428 10.351 11.4111 9.89797 11.5564 9.45352C11.6932 9.02617 11.9069 8.63301 12.1975 8.28258C12.4795 7.9407 12.83 7.6672 13.2317 7.47062C13.6334 7.27404 14.112 7.20566 14.659 7.20566C15.112 7.19711 15.565 7.28258 15.9838 7.47062C16.3342 7.62446 16.6419 7.85523 16.8812 8.15438C17.1035 8.44498 17.2829 8.76976 17.3941 9.12874C17.5052 9.47062 17.5564 9.82104 17.5564 10.1715C17.5564 10.3766 17.5479 10.5561 17.5394 10.7185C17.5223 10.8809 17.5137 11.0005 17.5052 11.0775C17.4966 11.1373 17.4453 11.1886 17.3855 11.1886C17.3342 11.1886 17.2402 11.1971 17.1035 11.2057C16.9667 11.2228 16.8043 11.2313 16.6077 11.2313C16.4111 11.2313 16.206 11.1971 15.9838 11.1971ZM13.2744 9.94925H15.0778C15.3 9.94925 15.4624 9.94925 15.565 9.9407C15.6334 9.93216 15.7017 9.91506 15.7616 9.87233V9.78686C15.7616 9.67575 15.7445 9.57318 15.7103 9.47062C15.5564 8.99198 15.1035 8.6672 14.5992 8.68429C14.1291 8.65865 13.6847 8.90651 13.4624 9.33386C13.3599 9.53045 13.3 9.73557 13.2744 9.94925Z" fill="#9999FF"/>
</g>
<defs>
<clipPath id="clip0_2039_1199">
<rect width="20.5128" height="20" fill="white"/>
</clipPath>
</defs>
</svg>
