<svg width="26" height="25" viewBox="0 0 26 25" fill="none" xmlns="http://www.w3.org/2000/svg">
<path d="M1.33289 21.9393C0.747108 22.5251 0.747108 23.4749 1.33289 24.0607C1.91868 24.6464 2.86843 24.6464 3.45421 24.0607L1.33289 21.9393ZM25.1068 1.7868C25.1068 0.95837 24.4352 0.286797 23.6068 0.286798L10.1068 0.286797C9.27833 0.286797 8.60676 0.958369 8.60676 1.7868C8.60676 2.61522 9.27833 3.2868 10.1068 3.2868H22.1068V15.2868C22.1068 16.1152 22.7783 16.7868 23.6068 16.7868C24.4352 16.7868 25.1068 16.1152 25.1068 15.2868L25.1068 1.7868ZM3.45421 24.0607L24.6674 2.84746L22.5461 0.726137L1.33289 21.9393L3.45421 24.0607Z" fill="#5BC8AC"/>
</svg>
