<svg width="24" height="21" viewBox="0 0 24 21" fill="none" xmlns="http://www.w3.org/2000/svg">
<path d="M21.032 10.8083C13.5501 11.7728 12.761 12.5572 11.7848 20.0003C10.8145 12.563 10.0254 11.7786 2.5376 10.8083C10.0195 9.84373 10.8087 9.05932 11.7848 1.61621C12.7551 9.05351 13.5442 9.83792 21.032 10.8083Z" stroke="#1D1D1B" stroke-linecap="round" stroke-linejoin="round"/>
<path d="M8.44687 4.70122C5.43072 5.09052 5.11507 5.40428 4.72344 8.40244C4.3318 5.40428 4.01616 5.09052 1 4.70122C4.01616 4.31192 4.3318 3.99816 4.72344 1C5.11507 3.99816 5.43072 4.31192 8.44687 4.70122Z" stroke="#1D1D1B" stroke-linecap="round" stroke-linejoin="round"/>
<path d="M22.5753 16.2813C19.5591 16.6706 19.2435 16.9844 18.8519 19.9825C18.4602 16.9844 18.1446 16.6706 15.1284 16.2813C18.1446 15.892 18.4602 15.5782 18.8519 12.5801C19.2435 15.5782 19.5591 15.892 22.5753 16.2813Z" stroke="#1D1D1B" stroke-linecap="round" stroke-linejoin="round"/>
</svg>
