<svg width="30" height="15" viewBox="0 0 30 15" fill="none" xmlns="http://www.w3.org/2000/svg">
<path d="M0 15V13.1562C0 12.0938 0.46875 11.2604 1.40625 10.6562C2.34375 10.0521 3.625 9.75 5.25 9.75C5.5625 9.75 5.875 9.76562 6.1875 9.79688C6.5 9.82812 6.8125 9.875 7.125 9.9375C6.77083 10.3542 6.49479 10.8229 6.29688 11.3438C6.09896 11.8646 6 12.3912 6 12.9237V15H0ZM7.5 15V13.0938C7.5 12.5133 7.65104 11.9828 7.95312 11.5022C8.25521 11.0216 8.65625 10.6562 9.15625 10.4062C10.0729 9.94792 11.0208 9.59896 12 9.35938C12.9792 9.11979 13.9743 9 14.9853 9C16.0159 9 17.0208 9.11979 18 9.35938C18.9792 9.59896 19.9271 9.94792 20.8438 10.4062C21.3438 10.6562 21.7448 11.0216 22.0469 11.5022C22.349 11.9828 22.5 12.5133 22.5 13.0938V15H7.5ZM24 15V12.8947C24 12.3332 23.901 11.8042 23.7031 11.3075C23.5052 10.8108 23.2292 10.3542 22.875 9.9375C23.2292 9.875 23.5573 9.82812 23.8594 9.79688C24.1615 9.76562 24.4583 9.75 24.75 9.75C26.375 9.75 27.6562 10.0521 28.5938 10.6562C29.5312 11.2604 30 12.0938 30 13.1562V15H24ZM9.8125 12.75H20.1875C20.0417 12.3958 19.4219 12.0573 18.3281 11.7344C17.2344 11.4115 16.125 11.25 15 11.25C13.875 11.25 12.7656 11.4115 11.6719 11.7344C10.5781 12.0573 9.95833 12.3958 9.8125 12.75ZM5.24344 8.25C4.62281 8.25 4.09375 8.03094 3.65625 7.59281C3.21875 7.1549 3 6.62833 3 6.01312C3 5.37937 3.21906 4.84375 3.65719 4.40625C4.0951 3.96875 4.62167 3.75 5.23688 3.75C5.87063 3.75 6.40625 3.96625 6.84375 4.39875C7.28125 4.83125 7.5 5.36719 7.5 6.00656C7.5 6.62719 7.28375 7.15625 6.85125 7.59375C6.41875 8.03125 5.88281 8.25 5.24344 8.25ZM24.7434 8.25C24.1228 8.25 23.5938 8.03094 23.1562 7.59281C22.7188 7.1549 22.5 6.62833 22.5 6.01312C22.5 5.37937 22.7191 4.84375 23.1572 4.40625C23.5951 3.96875 24.1217 3.75 24.7369 3.75C25.3706 3.75 25.9062 3.96625 26.3438 4.39875C26.7812 4.83125 27 5.36719 27 6.00656C27 6.62719 26.7837 7.15625 26.3512 7.59375C25.9187 8.03125 25.3828 8.25 24.7434 8.25ZM14.9844 7.5C13.9531 7.5 13.0729 7.13542 12.3438 6.40625C11.6146 5.67708 11.25 4.79167 11.25 3.75C11.25 2.70833 11.6146 1.82292 12.3438 1.09375C13.0729 0.364583 13.9583 0 15 0C16.0417 0 16.9271 0.364583 17.6562 1.09375C18.3854 1.82292 18.75 2.71354 18.75 3.76562C18.75 4.79688 18.3854 5.67708 17.6562 6.40625C16.9271 7.13542 16.0365 7.5 14.9844 7.5ZM15 5.25C15.425 5.25 15.7813 5.10625 16.0688 4.81875C16.3563 4.53125 16.5 4.175 16.5 3.75C16.5 3.325 16.3563 2.96875 16.0688 2.68125C15.7813 2.39375 15.425 2.25 15 2.25C14.575 2.25 14.2187 2.39375 13.9312 2.68125C13.6437 2.96875 13.5 3.325 13.5 3.75C13.5 4.175 13.6437 4.53125 13.9312 4.81875C14.2187 5.10625 14.575 5.25 15 5.25Z" fill="#5BC8AC"/>
</svg>
