<svg width="23" height="21" viewBox="0 0 23 21" fill="none" xmlns="http://www.w3.org/2000/svg">
<path d="M0.184335 2.35113C1.3656 1.63951 2.54438 0.922286 3.73063 0.21875C3.73312 5.66602 3.72441 11.1133 3.73498 16.5606C3.19753 16.8946 2.65075 17.2131 2.11206 17.5434C1.46886 17.9272 0.830642 18.3197 0.186201 18.7004C0.181846 13.2507 0.185579 7.80089 0.184335 2.35113Z" fill="#7DC6DD"/>
<path d="M3.73058 0.219529C8.89793 0.210821 14.0659 0.218285 19.2339 0.215797C19.8721 0.17723 20.4711 0.722144 20.4736 1.36472C20.4854 2.21008 20.4749 3.05607 20.4786 3.90205C20.4774 8.12078 20.4811 12.3389 20.4767 16.5576C14.8963 16.5638 9.31533 16.5564 3.73494 16.5613C3.72436 11.1141 3.73307 5.6668 3.73058 0.219529ZM7.41746 3.86908C7.41311 6.89161 7.41684 9.91414 7.41559 12.9367C8.06874 12.9367 8.72189 12.9367 9.37504 12.9367C9.37567 10.9349 9.37504 8.93317 9.37504 6.93142C9.92618 8.92695 10.4294 10.9368 10.965 12.9367C11.6748 12.9379 12.3851 12.9342 13.0949 12.9385C13.6062 11.0239 14.097 9.10299 14.6133 7.18895C14.6195 9.10486 14.6133 11.0208 14.6158 12.9361C15.3361 12.9373 16.0565 12.9367 16.7768 12.9367C16.7805 9.91663 16.7718 6.89659 16.7811 3.87655C15.8555 3.86224 14.9293 3.87406 14.0037 3.87033C13.3742 6.27952 12.7378 8.68684 12.0984 11.0929C11.4819 8.68809 10.8897 6.27703 10.2807 3.87033C9.3259 3.86908 8.37168 3.87157 7.41746 3.86908Z" fill="#37A5CC"/>
<path d="M7.41759 3.86816C8.37181 3.87065 9.32603 3.86816 10.2809 3.86941C10.8899 6.27611 11.482 8.68717 12.0985 11.092C12.738 8.68592 13.3743 6.2786 14.0038 3.86941C14.9294 3.87314 15.8557 3.86132 16.7813 3.87563C16.7719 6.89567 16.7806 9.91571 16.7769 12.9358C16.0566 12.9358 15.3363 12.9364 14.6159 12.9351C14.6134 11.0198 14.6197 9.10394 14.6134 7.18803C14.0971 9.10207 13.6063 11.023 13.095 12.9376C12.3853 12.9333 11.6749 12.937 10.9651 12.9358C10.4295 10.9359 9.9263 8.92603 9.37517 6.93051C9.37517 8.93225 9.37579 10.934 9.37517 12.9358C8.72202 12.9358 8.06887 12.9358 7.41572 12.9358C7.41696 9.91322 7.41323 6.89069 7.41759 3.86816Z" fill="white"/>
<path d="M20.4787 3.90183C21.0124 3.90121 21.5461 3.90121 22.0805 3.90183C22.0773 9.33915 22.0873 14.7771 22.0755 20.2144H3.33505C3.11235 20.1833 2.88157 20.1491 2.68687 20.0284C2.33915 19.8263 2.10961 19.4337 2.11272 19.03C2.11024 18.5349 2.11521 18.0391 2.1121 17.544C2.6508 17.2137 3.19758 16.8952 3.73502 16.5611C9.31541 16.5561 14.8964 16.5636 20.4768 16.5574C20.4812 12.3387 20.4774 8.12056 20.4787 3.90183Z" fill="#36697F"/>
</svg>
