<svg width="30" height="30" viewBox="0 0 30 30" fill="none" xmlns="http://www.w3.org/2000/svg">
<rect width="30" height="30" rx="5" fill="#5BC8AC"/>
<path d="M23.8951 9.74902H18.229V11.0659H23.8951V9.74902Z" fill="white"/>
<path d="M13.6984 15.0406C14.1333 14.811 14.4716 14.5694 14.6891 14.3036C15.0878 13.8204 15.2931 13.1801 15.2931 12.3827C15.2931 11.5854 15.0878 10.9451 14.6891 10.3893C14.0246 9.48325 12.9011 9.02416 11.3064 9H5V22.0356H10.8714C11.5359 22.0356 12.152 21.9752 12.7199 21.8543C13.2877 21.7335 13.783 21.5161 14.1938 21.202C14.5562 20.9241 14.8703 20.5858 15.1119 20.1751C15.4985 19.5589 15.6918 18.8703 15.6918 18.0971C15.6918 17.3239 15.5227 16.7078 15.1844 16.1883C14.8461 15.6688 14.3387 15.2822 13.6743 15.0406H13.6984ZM7.60953 11.2592H10.4486C11.0768 11.2592 11.5842 11.3317 11.995 11.4646C12.4661 11.6579 12.6957 12.0565 12.6957 12.6727C12.6957 13.2163 12.5145 13.6029 12.1641 13.8204C11.8138 14.0378 11.3547 14.1466 10.7869 14.1466H7.62161V11.2713L7.60953 11.2592ZM12.1037 19.5468C11.7896 19.7039 11.3426 19.7764 10.7869 19.7764H7.62161V16.297H10.8352C11.3909 16.297 11.8258 16.3816 12.14 16.5145C12.6957 16.7682 12.9736 17.2393 12.9736 17.9159C12.9736 18.7132 12.6836 19.2569 12.1158 19.5468H12.1037Z" fill="white"/>
<path d="M25.9246 16.0076C25.8038 15.2465 25.5501 14.582 25.1514 14.0142C24.7165 13.3618 24.1608 12.8906 23.4842 12.5886C22.8077 12.2866 22.0586 12.1416 21.213 12.1416C19.7995 12.1416 18.6518 12.5886 17.7698 13.4826C16.8879 14.3766 16.4409 15.6572 16.4409 17.3244C16.4409 19.1124 16.9362 20.393 17.9148 21.1904C18.8934 21.9877 20.029 22.3743 21.3096 22.3743C22.8681 22.3743 24.0762 21.9032 24.934 20.9729C25.4897 20.3809 25.8038 19.801 25.8642 19.2332H23.2909C23.146 19.5111 22.9647 19.7406 22.7714 19.8977C22.409 20.1876 21.9499 20.3447 21.37 20.3447C20.8264 20.3447 20.3673 20.2239 19.9807 19.9823C19.3525 19.5957 19.0142 18.9191 18.978 17.9526H25.9971C26.0092 17.119 25.985 16.4787 25.9125 16.0438L25.9246 16.0076ZM19.0504 16.2613C19.1471 15.6331 19.3646 15.1377 19.727 14.7632C20.0894 14.4008 20.5848 14.2075 21.2371 14.2075C21.8291 14.2075 22.3365 14.3766 22.7352 14.727C23.1339 15.0773 23.3634 15.5847 23.4117 16.2492H19.0625L19.0504 16.2613Z" fill="white"/>
</svg>
