<svg width="40" height="20" viewBox="0 0 40 20" fill="none" xmlns="http://www.w3.org/2000/svg">
<path d="M0 0H40V20H0V0Z" fill="#CE1720"/>
<mask id="mask0_2039_1135" style="mask-type:luminance" maskUnits="userSpaceOnUse" x="0" y="0" width="5" height="20">
<path d="M0.211426 0H4.65587V13.5111H4.83365V19.8222L4.65587 20H0.211426V0Z" fill="white"/>
</mask>
<g mask="url(#mask0_2039_1135)">
<path d="M1.01147 0V0.311111H0.811469V0.622222H0.567025V0.977778H0.389247V1.26667H0.0336914V0.533333H0.389247V0.133333H0.0336914V0H1.01147ZM1.58925 1.71111V2.04444H1.41147V2.31111H1.23369V2.04444H1.05591V1.71111H0.878136V1.26667H1.05591V0.933333H1.23369V0.666667H1.41147V0.933333H1.58925V1.26667H1.76702V1.71111H1.58925ZM1.21147 1.68889H1.43369V1.28889H1.21147V1.68889ZM0.633691 4.06667H0.811469V3.66667H0.633691V4.06667ZM1.83369 4.06667H2.01147V3.66667H1.83369V4.06667ZM0.0336914 6.77778H0.344803V7.06667H0.478136V7.42222H0.678136V7.75556H0.944803V7.42222H1.1448V7.06667H1.32258V6.77778H1.05591V6.44444H1.52258V6.66667H1.81147V7.04444H2.05591V7.46667H1.87814V7.77778H1.72258V8.06667H1.58925V8.37778H1.38925V8.64444H1.23369V8.88889H1.03369V9.2H0.744803V8.86667H0.544803V8.55556H0.389247V8.35555H0.0336914V7.84444H0.389247V7.4H0.0336914V6.77778Z" fill="white"/>
<path d="M3.85572 0V0.311111H4.05572V0.622222H4.30016V0.977778H4.47794V1.26667H4.8335V0.533333H4.47794V0.133333H4.8335V0H3.85572ZM3.27794 1.71111V2.04444H3.45572V2.31111H3.6335V2.04444H3.81127V1.71111H3.98905V1.26667H3.81127V0.933333H3.6335V0.666667H3.45572V0.933333H3.27794V1.26667H3.10016V1.71111H3.27794ZM3.65572 1.68889H3.4335V1.28889H3.65572V1.68889ZM4.2335 4.06667H4.05572V3.66667H4.2335V4.06667ZM3.0335 4.06667H2.85572V3.66667H3.0335V4.06667ZM4.8335 6.77778H4.52238V7.06667H4.38905V7.42222H4.18905V7.75556H3.92238V7.42222H3.72238V7.06667H3.54461V6.77778H3.81127V6.44444H3.34461V6.66667H3.05572V7.04444H2.81127V7.46667H2.98905V7.77778H3.14461V8.06667H3.27794V8.37778H3.47794V8.64444H3.6335V8.88889H3.8335V9.2H4.12238V8.86667H4.32238V8.55556H4.47794V8.35555H4.8335V7.84444H4.47794V7.4H4.8335V6.77778Z" fill="white"/>
<path d="M2.3448 0V0.711111H2.52258V0H3.23369V0.311111H3.05591V0.622222H2.78925V0.977778H2.61147V1.26667H2.25591V0.977778H2.07814V0.622222H1.81147V0.311111H1.63369V0H2.3448ZM2.30036 6.08889V5.84444H2.16702V5.55556H2.01147V5.24444H1.83369V4.93333H1.65591V4.71111H1.45591V4.4H1.18925V4.71111H0.989247V4.93333H0.833691V5.24444H0.655914V5.55556H0.52258V5.84444H0.389247V6.22222H0.0336914V5.24444H0.389247V4.8H0.0336914V4.06667H0.389247V4.37778H0.611469V4.68889H0.833691V4.37778H1.05591V4.06667H1.23369V3.66667H1.05591V3.35556H0.833691V3.04444H0.611469V3.35556H0.389247V3.66667H0.0336914V2.75556H0.389247V2.33333H0.0336914V1.71111H0.389247V2H0.567025V2.35556H0.811469V2.64444H1.01147V2.97778H1.16702V3.24444H1.47814V2.97778H1.63369V2.64444H1.83369V2.35556H2.07814V2H2.25591V1.71111H2.61147V2H2.78925V2.35556H3.03369V2.64444H3.23369V2.97778H3.38925V3.24444H3.70036V2.97778H3.85591V2.64444H4.05591V2.35556H4.30036V2H4.47814V1.71111H4.83369V2.33333H4.47814V2.75556H4.83369V3.66667H4.47814V3.35556H4.25591V3.04444H4.03369V3.35556H3.81147V3.66667H3.63369V4.06667H3.81147V4.37778H4.03369V4.68889H4.25591V4.37778H4.47814V4.06667H4.83369V4.8H4.47814V5.24444H4.83369V6.22222H4.47814V5.84444H4.3448V5.55556H4.21147V5.24444H4.03369V4.93333H3.87814V4.71111H3.67814V4.4H3.41147V4.71111H3.21147V4.93333H3.03369V5.24444H2.85591V5.55556H2.70036V5.84444H2.56702V6.08889H2.30036ZM2.3448 2.37778V2.97778H2.52258V2.37778H2.3448ZM2.25591 3.66667V3.35556H2.03369V3.04444H1.81147V3.35556H1.58925V3.66667H1.41147V4.06667H1.58925V4.37778H1.81147V4.68889H2.03369V4.37778H2.25591V4.06667H2.61147V4.37778H2.83369V4.68889H3.05591V4.37778H3.27814V4.06667H3.45591V3.66667H3.27814V3.35556H3.05591V3.04444H2.83369V3.35556H2.61147V3.66667H2.25591ZM2.3448 4.68889V5.28889H2.52258V4.68889H2.3448Z" fill="white"/>
<path d="M1.01147 20V19.6889H0.811469V19.3778H0.567025V19.0222H0.389247V18.7333H0.0336914V19.4667H0.389247V19.8667H0.0336914V20H1.01147ZM1.58925 18.2889V17.9556H1.41147V17.6889H1.23369V17.9556H1.05591V18.2889H0.878136V18.7333H1.05591V19.0667H1.23369V19.3333H1.41147V19.0667H1.58925V18.7333H1.76702V18.2889H1.58925ZM1.21147 18.3111H1.43369V18.7111H1.21147V18.3111ZM0.633691 15.9333H0.811469V16.3333H0.633691V15.9333ZM1.83369 15.9333H2.01147V16.3333H1.83369V15.9333ZM0.0336914 13.2222H0.344803V12.9333H0.478136V12.5778H0.678136V12.2444H0.944803V12.5778H1.1448V12.9333H1.32258V13.2222H1.05591V13.5556H1.52258V13.3333H1.81147V12.9556H2.05591V12.5333H1.87814V12.2222H1.72258V11.9333H1.58925V11.6222H1.38925V11.3556H1.23369V11.1111H1.03369V10.8H0.744803V11.1333H0.544803V11.4444H0.389247V11.6444H0.0336914V12.1556H0.389247V12.6H0.0336914V13.2222Z" fill="white"/>
<path d="M3.85572 20V19.6889H4.05572V19.3778H4.30016V19.0222H4.47794V18.7333H4.8335V19.4667H4.47794V19.8667H4.8335V20H3.85572ZM3.27794 18.2889V17.9556H3.45572V17.6889H3.6335V17.9556H3.81127V18.2889H3.98905V18.7333H3.81127V19.0667H3.6335V19.3333H3.45572V19.0667H3.27794V18.7333H3.10016V18.2889H3.27794ZM3.65572 18.3111H3.4335V18.7111H3.65572V18.3111ZM4.2335 15.9333H4.05572V16.3333H4.2335V15.9333ZM3.0335 15.9333H2.85572V16.3333H3.0335V15.9333ZM4.8335 13.2222H4.52238V12.9333H4.38905V12.5778H4.18905V12.2444H3.92238V12.5778H3.72238V12.9333H3.54461V13.2222H3.81127V13.5556H3.34461V13.3333H3.05572V12.9556H2.81127V12.5333H2.98905V12.2222H3.14461V11.9333H3.27794V11.6222H3.47794V11.3556H3.6335V11.1111H3.8335V10.8H4.12238V11.1333H4.32238V11.4444H4.47794V11.6444H4.8335V12.1556H4.47794V12.6H4.8335V13.2222Z" fill="white"/>
<path d="M2.3448 20V19.2889H2.52258V20H3.23369V19.6889H3.05591V19.3778H2.78925V19.0222H2.61147V18.7333H2.25591V19.0222H2.07814V19.3778H1.81147V19.6889H1.63369V20H2.3448ZM2.30036 13.9111V14.1556H2.16702V14.4444H2.01147V14.7556H1.83369V15.0667H1.65591V15.2889H1.45591V15.6H1.18925V15.2889H0.989247V15.0667H0.833691V14.7556H0.655914V14.4444H0.52258V14.1556H0.389247V13.7778H0.0336914V14.7556H0.389247V15.2H0.0336914V15.9333H0.389247V15.6222H0.611469V15.3111H0.833691V15.6222H1.05591V15.9333H1.23369V16.3333H1.05591V16.6444H0.833691V16.9556H0.611469V16.6444H0.389247V16.3333H0.0336914V17.2444H0.389247V17.6667H0.0336914V18.2889H0.389247V18H0.567025V17.6444H0.811469V17.3556H1.01147V17.0222H1.16702V16.7556H1.47814V17.0222H1.63369V17.3556H1.83369V17.6444H2.07814V18H2.25591V18.2889H2.61147V18H2.78925V17.6444H3.03369V17.3556H3.23369V17.0222H3.38925V16.7556H3.70036V17.0222H3.85591V17.3556H4.05591V17.6444H4.30036V18H4.47814V18.2889H4.83369V17.6667H4.47814V17.2444H4.83369V16.3333H4.47814V16.6444H4.25591V16.9556H4.03369V16.6444H3.81147V16.3333H3.63369V15.9333H3.81147V15.6222H4.03369V15.3111H4.25591V15.6222H4.47814V15.9333H4.83369V15.2H4.47814V14.7556H4.83369V13.7778H4.47814V14.1556H4.3448V14.4444H4.21147V14.7556H4.03369V15.0667H3.87814V15.2889H3.67814V15.6H3.41147V15.2889H3.21147V15.0667H3.03369V14.7556H2.85591V14.4444H2.70036V14.1556H2.56702V13.9111H2.30036ZM2.3448 17.6222V17.0222H2.52258V17.6222H2.3448ZM2.25591 16.3333V16.6444H2.03369V16.9556H1.81147V16.6444H1.58925V16.3333H1.41147V15.9333H1.58925V15.6222H1.81147V15.3111H2.03369V15.6222H2.25591V15.9333H2.61147V15.6222H2.83369V15.3111H3.05591V15.6222H3.27814V15.9333H3.45591V16.3333H3.27814V16.6444H3.05591V16.9556H2.83369V16.6444H2.61147V16.3333H2.25591ZM2.3448 15.3111V14.7111H2.52258V15.3111H2.3448Z" fill="white"/>
<path d="M0.0336914 9.06695H0.389247V9.37806H0.544803V9.55584H0.72258V9.86695H0.878136V10.1336H0.72258V10.4447H0.544803V10.6225H0.389247V10.9336H0.0336914V9.06695ZM4.83369 9.06695V10.9336H4.47814V10.6225H4.32258V10.4447H4.1448V10.1336H3.98925V9.86695H4.1448V9.55584H4.32258V9.37806H4.47814V9.06695H4.83369ZM1.58925 10.2003H1.76702V9.80028H1.58925V10.2003ZM3.27814 10.2003V9.80028H3.10036V10.2003H3.27814ZM2.3448 8.88917H2.52258V8.48917H2.3448V8.88917ZM2.3448 11.1114V11.5114H2.52258V11.1114H2.3448ZM1.23369 9.44473H1.5448V9.20028H1.76702V8.97806H1.87814V8.75584H2.01147V8.44473H2.18925V8.13362H2.27814V7.84473H2.58925V8.13362H2.67814V8.44473H2.85591V8.75584H2.98925V8.97806H3.10036V9.20028H3.32258V9.44473H3.63369V10.5558H3.32258V10.8003H3.10036V11.0225H2.98925V11.2447H2.85591V11.5558H2.67814V11.8669H2.58925V12.1558H2.27814V11.8669H2.18925V11.5558H2.01147V11.2447H1.87814V11.0225H1.76702V10.8003H1.5448V10.5558H1.23369V9.44473ZM2.3448 9.64473V9.31139H2.16702V9.08917H1.98925V9.64473H2.16702V9.84473H2.27814V10.1558H2.16702V10.3558H1.98925V10.9114H2.16702V10.6892H2.3448V10.3558H2.52258V10.6892H2.70036V10.9114H2.87814V10.3558H2.70036V10.1558H2.58925V9.84473H2.70036V9.64473H2.87814V9.08917H2.70036V9.31139H2.52258V9.64473H2.3448Z" fill="white"/>
</g>
<path d="M4.65625 13.333H40.0002V19.9997H4.65625V13.333Z" fill="#007C30"/>
</svg>
