<svg width="25" height="20" viewBox="0 0 25 20" fill="none" xmlns="http://www.w3.org/2000/svg">
<path d="M9.22045 11.363C9.31002 9.76587 10.0908 8.35468 11.2739 7.35755C12.4316 6.37731 13.9864 5.77734 15.6934 5.77734C17.3919 5.77734 18.9467 6.37647 20.1044 7.35755C21.2875 8.35468 22.0649 9.76587 22.1579 11.363C22.2474 13.0023 21.5875 14.5318 20.434 15.6642C19.2509 16.8134 17.5778 17.5401 15.6934 17.5401C13.809 17.5401 12.1274 16.8185 10.9528 15.6642C9.79507 14.5318 9.13594 13.0108 9.22889 11.3714L9.22045 11.363Z" fill="white"/>
<path d="M12.7609 11.1673C12.8069 10.3465 13.2081 9.62134 13.8161 9.10892C14.411 8.60519 15.21 8.29688 16.0872 8.29688C16.9601 8.29688 17.7591 8.60476 18.354 9.10892C18.962 9.62134 19.3615 10.3465 19.4093 11.1673C19.4553 12.0097 19.1161 12.7957 18.5234 13.3776C17.9154 13.9682 17.0556 14.3416 16.0872 14.3416C15.1188 14.3416 14.2547 13.9708 13.6511 13.3776C13.0562 12.7957 12.7174 12.0141 12.7652 11.1716L12.7609 11.1673Z" fill="#265787"/>
<path d="M7.54977 12.9043C7.55542 13.2257 7.6579 13.851 7.81163 14.3374C8.13471 15.3709 8.68447 16.3262 9.44442 17.1643C10.2261 18.0285 11.1901 18.7233 12.3018 19.2184C13.4699 19.7351 14.7379 20 16.0537 20C17.3695 19.9983 18.6375 19.729 19.8057 19.2053C20.9173 18.7059 21.8814 18.0111 22.663 17.1426C23.4273 16.2958 23.9745 15.3405 24.2958 14.307C24.4587 13.7859 24.5616 13.2561 24.6028 12.7263C24.6432 12.2052 24.6263 11.6797 24.552 11.1543C24.407 10.1338 24.0526 9.17411 23.5098 8.30561C23.0148 7.50224 22.3721 6.8031 21.6078 6.21251L21.6095 6.21122L13.9233 0.305392C13.9163 0.300181 13.9107 0.294531 13.9033 0.289755C13.3996 -0.0975976 12.5484 -0.0962927 11.9969 0.291928C11.4368 0.684491 11.3716 1.33413 11.871 1.74233L11.8688 1.7445L15.078 4.35436L5.3073 4.36477H5.29427C4.48656 4.36564 3.70925 4.89457 3.55726 5.56766C3.3992 6.24943 3.94809 6.81829 4.79054 6.81829L4.78924 6.82134L9.7397 6.81178L0.880975 13.5861C0.869684 13.5944 0.857524 13.603 0.847102 13.6113C0.0133389 14.2496 -0.255898 15.3136 0.269546 15.9823C0.803676 16.6641 1.93707 16.6684 2.77952 15.9862L7.59971 12.0345C7.59971 12.0345 7.52936 12.5687 7.53501 12.8857L7.54977 12.9043ZM19.9694 14.6891C18.9749 15.7009 17.581 16.2785 16.0785 16.2785C14.5716 16.2811 13.1777 15.7139 12.1832 14.7021C11.6969 14.2071 11.3408 13.6426 11.1193 13.0389C10.9035 12.444 10.8197 11.8144 10.8753 11.1804C10.9278 10.5594 11.1128 9.96445 11.4094 9.43032C11.6995 8.90488 12.0999 8.4272 12.5906 8.02335C13.5589 7.23735 14.7879 6.80744 16.0733 6.80744C17.363 6.8057 18.5919 7.22823 19.5603 8.01466C20.051 8.4159 20.4505 8.89185 20.7415 9.41729C21.0381 9.95142 21.2235 10.542 21.2756 11.1673C21.3303 11.8013 21.2465 12.431 21.0307 13.0259C20.8101 13.6339 20.4531 14.1984 19.9668 14.6934L19.9694 14.6891Z" fill="#EA7600"/>
</svg>
