<svg width="23" height="22" viewBox="0 0 23 22" fill="none" xmlns="http://www.w3.org/2000/svg">
<path d="M12.6491 8.45344C13.4371 8.45344 14.076 7.81459 14.076 7.02652C14.076 6.23846 13.4371 5.59961 12.6491 5.59961C11.861 5.59961 11.2222 6.23846 11.2222 7.02652C11.2222 7.81459 11.861 8.45344 12.6491 8.45344Z" stroke="black" stroke-width="1.2" stroke-miterlimit="10" stroke-linecap="round" stroke-linejoin="round"/>
<path d="M16.2027 1H3.5575C2.14503 1 1 2.14503 1 3.5575V16.2027C1 17.6151 2.14503 18.7602 3.5575 18.7602H16.2027C17.6151 18.7602 18.7602 17.6151 18.7602 16.2027V3.5575C18.7602 2.14503 17.6151 1 16.2027 1Z" stroke="black" stroke-width="1.2" stroke-miterlimit="10" stroke-linecap="round" stroke-linejoin="round"/>
<path d="M18.7403 3.24023H18.962C20.3741 3.24023 21.5195 4.3852 21.5195 5.79774V18.4429C21.5195 19.8554 20.3741 21.0004 18.962 21.0004H6.31684C5.01188 21.0004 3.93555 20.0233 3.77881 18.7605" stroke="black" stroke-width="1.2" stroke-miterlimit="10" stroke-linecap="round" stroke-linejoin="round"/>
<path d="M5.33301 12.4157C6.09446 11.6325 6.85592 10.8497 7.61737 10.0664C8.1989 9.46821 9.15605 9.45707 9.75148 10.0414L14.4259 14.6296" stroke="black" stroke-width="1.2" stroke-miterlimit="10" stroke-linecap="round" stroke-linejoin="round"/>
</svg>
