<svg width="33" height="20" viewBox="0 0 33 20" fill="none" xmlns="http://www.w3.org/2000/svg">
<path fill-rule="evenodd" clip-rule="evenodd" d="M0 1.5C0 0.671573 0.671573 0 1.5 0H31.5C32.3284 0 33 0.671573 33 1.5C33 2.32843 32.3284 3 31.5 3H1.5C0.671573 3 0 2.32843 0 1.5Z" fill="#5BC8AC"/>
<path fill-rule="evenodd" clip-rule="evenodd" d="M0 10C0 9.17157 0.671573 8.5 1.5 8.5H31.5C32.3284 8.5 33 9.17157 33 10C33 10.8284 32.3284 11.5 31.5 11.5H1.5C0.671573 11.5 0 10.8284 0 10Z" fill="#5BC8AC"/>
<path fill-rule="evenodd" clip-rule="evenodd" d="M0 18.5C0 17.6716 0.671573 17 1.5 17H31.5C32.3284 17 33 17.6716 33 18.5C33 19.3284 32.3284 20 31.5 20H1.5C0.671573 20 0 19.3284 0 18.5Z" fill="#5BC8AC"/>
</svg>
