<svg width="30" height="22" viewBox="0 0 30 22" fill="none" xmlns="http://www.w3.org/2000/svg">
<path d="M20.2993 16.2002C21.4039 16.2002 22.2993 15.3048 22.2993 14.2002C22.2993 13.0956 21.4039 12.2002 20.2993 12.2002C19.1947 12.2002 18.2993 13.0956 18.2993 14.2002C18.2993 15.3048 19.1947 16.2002 20.2993 16.2002Z" stroke="black" stroke-width="0.8" stroke-linecap="round" stroke-linejoin="round"/>
<path d="M3.09911 21C4.20368 21 5.09912 20.1046 5.09912 19C5.09912 17.8954 4.20368 17 3.09911 17C1.99454 17 1.09912 17.8954 1.09912 19C1.09912 20.1046 1.99454 21 3.09911 21Z" stroke="black" stroke-width="0.8" stroke-linecap="round" stroke-linejoin="round"/>
<path d="M26.6992 5C27.8038 5 28.6992 4.10457 28.6992 3C28.6992 1.89543 27.8038 1 26.6992 1C25.5946 1 24.6992 1.89543 24.6992 3C24.6992 4.10457 25.5946 5 26.6992 5Z" stroke="black" stroke-width="0.8" stroke-linecap="round" stroke-linejoin="round"/>
<path d="M9.09912 9.7998C10.2037 9.7998 11.0991 8.90438 11.0991 7.79981C11.0991 6.69524 10.2037 5.7998 9.09912 5.7998C7.99455 5.7998 7.09912 6.69524 7.09912 7.79981C7.09912 8.90438 7.99455 9.7998 9.09912 9.7998Z" stroke="black" stroke-width="0.8" stroke-linecap="round" stroke-linejoin="round"/>
<path d="M18.2991 13L11.0991 9" stroke="black" stroke-width="0.8" stroke-linecap="round" stroke-linejoin="round"/>
<path d="M25.4992 5L20.6992 12.2" stroke="black" stroke-width="0.8" stroke-linecap="round" stroke-linejoin="round"/>
<path d="M8.09912 10L4.09912 17" stroke="black" stroke-width="0.8" stroke-linecap="round" stroke-linejoin="round"/>
</svg>
