<svg width="77" height="77" viewBox="0 0 77 77" fill="none" xmlns="http://www.w3.org/2000/svg">
<path d="M41.171 6.28021C41.0542 6.26982 40.9582 6.23451 40.8833 6.1743C40.8141 6.10925 40.7606 6.01882 40.7227 5.90301L39.0107 0.859547C38.9781 0.744208 38.976 0.647641 39.0043 0.569845C39.0327 0.492049 39.0806 0.434736 39.1481 0.397906C39.2214 0.356236 39.3059 0.339652 39.4015 0.348156C39.5237 0.359021 39.6143 0.39385 39.6733 0.452642C39.7324 0.511435 39.7784 0.595844 39.8114 0.705871L41.4057 5.53808L41.1109 5.51186L43.5175 1.0274C43.5743 0.93072 43.6369 0.858651 43.7054 0.811196C43.7792 0.764214 43.8745 0.745919 43.9914 0.756312C44.087 0.764815 44.1619 0.795571 44.2161 0.848578C44.2761 0.896746 44.3105 0.961381 44.3193 1.04248C44.3282 1.12359 44.3038 1.21779 44.246 1.3251L41.6789 5.98805C41.6212 6.09535 41.5525 6.17492 41.473 6.22674C41.3939 6.27325 41.2932 6.29107 41.171 6.28021Z" fill="#FAF5FF"/>
<path d="M44.9153 6.8342C44.7901 6.80732 44.7015 6.75011 44.6494 6.66255C44.5984 6.56977 44.5875 6.4556 44.6166 6.32002L45.2717 3.26957C45.3008 3.134 45.3571 3.03699 45.4406 2.97854C45.524 2.9201 45.6283 2.90432 45.7535 2.93119C45.8786 2.95807 45.9673 3.01529 46.0194 3.10285C46.0767 3.19153 46.0908 3.30366 46.0617 3.43923L45.4066 6.48968C45.3774 6.62525 45.3206 6.72487 45.236 6.78853C45.1525 6.84697 45.0456 6.8622 44.9153 6.8342ZM45.9282 2.11774C45.7717 2.08415 45.6576 2.01872 45.5858 1.92147C45.5191 1.82533 45.5009 1.70687 45.5312 1.56608C45.5625 1.42008 45.6278 1.31953 45.7269 1.26445C45.8323 1.20527 45.9632 1.19248 46.1197 1.22607C46.2761 1.25967 46.3876 1.32453 46.4543 1.42067C46.5272 1.51271 46.5481 1.63173 46.5167 1.77773C46.4865 1.91852 46.4186 2.01851 46.3132 2.07769C46.2129 2.13798 46.0846 2.15134 45.9282 2.11774Z" fill="#FAF5FF"/>
<path d="M48.48 7.83038C48.0743 7.69808 47.7493 7.50792 47.5048 7.25989C47.2671 7.00844 47.1134 6.71428 47.0437 6.37742C46.9808 6.03713 47.0138 5.66924 47.1428 5.27375C47.2685 4.88839 47.4571 4.57684 47.7085 4.33909C47.96 4.10134 48.2491 3.94599 48.5758 3.87304C48.9025 3.80008 49.2408 3.82066 49.5907 3.93477C49.8493 4.01911 50.0659 4.13746 50.2406 4.2898C50.417 4.43708 50.5497 4.615 50.6387 4.82356C50.7345 5.0287 50.7807 5.25693 50.7772 5.50826C50.7789 5.76123 50.7334 6.0297 50.6408 6.31364C50.6127 6.39984 50.5658 6.45749 50.5002 6.48658C50.4363 6.51061 50.3536 6.50608 50.2522 6.47301L47.6967 5.63952L47.8505 5.16797L50.1931 5.932L50.029 5.99631C50.1117 5.74279 50.144 5.51489 50.1258 5.31262C50.1127 5.112 50.0475 4.94207 49.9302 4.80285C49.8197 4.6602 49.6579 4.55415 49.445 4.4847C49.2066 4.40697 48.9856 4.3966 48.7819 4.45357C48.5833 4.5122 48.4086 4.62633 48.2579 4.79597C48.1072 4.9656 47.9889 5.18225 47.9029 5.44592L47.888 5.49155C47.7425 5.93775 47.7365 6.30884 47.8699 6.60481C48.0101 6.89737 48.2805 7.10897 48.6811 7.23962C48.8332 7.28923 48.9995 7.32104 49.1801 7.33505C49.3657 7.35072 49.5503 7.33518 49.7338 7.28846C49.8365 7.26587 49.92 7.26786 49.9843 7.29442C50.0536 7.32265 50.102 7.36366 50.1293 7.41745C50.1617 7.4729 50.1731 7.5327 50.1634 7.59685C50.1537 7.661 50.1228 7.72108 50.0709 7.77707C50.0207 7.82799 49.9492 7.8664 49.8566 7.8923C49.6462 7.9527 49.417 7.97611 49.169 7.96253C48.9226 7.94389 48.6929 7.89984 48.48 7.83038Z" fill="#FAF5FF"/>
<path d="M52.1722 9.29263C52.0732 9.24019 51.9985 9.17043 51.9481 9.08335C51.9048 8.99406 51.8907 8.88398 51.9058 8.75311L52.3238 5.45268C52.336 5.33846 52.3679 5.24974 52.4195 5.18654C52.4736 5.11863 52.5402 5.07846 52.6192 5.06601C52.7029 5.05606 52.7919 5.07606 52.8862 5.126C52.971 5.17095 53.0281 5.22837 53.0575 5.29825C53.094 5.36591 53.1012 5.46629 53.079 5.59937L52.6228 8.69848L52.4531 8.60858L54.8117 6.48132C54.8921 6.40926 54.9719 6.367 55.0509 6.35456C55.1299 6.34211 55.2142 6.35961 55.3037 6.40706C55.3933 6.4545 55.4551 6.51442 55.4892 6.5868C55.5279 6.66167 55.5378 6.75137 55.5186 6.85589L55.0616 9.99078L54.9061 9.90837L57.2359 7.784C57.331 7.69559 57.4169 7.64752 57.4934 7.63978C57.5746 7.63454 57.653 7.6519 57.7284 7.69186C57.8226 7.7418 57.8808 7.80282 57.903 7.87492C57.9298 7.94952 57.9256 8.02576 57.8904 8.10366C57.8624 8.17934 57.8094 8.25086 57.7314 8.31821L55.2352 10.5174C55.1379 10.5986 55.0378 10.6451 54.9349 10.657C54.8367 10.6714 54.7405 10.6536 54.6463 10.6037C54.5473 10.5512 54.4739 10.4791 54.4259 10.3873C54.3827 10.298 54.3674 10.1903 54.3799 10.0641L54.8099 6.86062L55.1633 7.04791L52.7611 9.20635C52.6685 9.29005 52.5707 9.33784 52.4678 9.34972C52.3697 9.36411 52.2711 9.34508 52.1722 9.29263Z" fill="#FAF5FF"/>
<path d="M59.9648 14.6146C59.8667 14.5243 59.8155 14.4264 59.8112 14.3209C59.8108 14.219 59.8558 14.119 59.9461 14.0209L63.0466 10.6554L61.7992 9.50627C61.7168 9.43039 61.672 9.34919 61.6647 9.26268C61.661 9.17224 61.697 9.08584 61.7729 9.00347C61.8488 8.92109 61.9302 8.88001 62.017 8.88023C62.1038 8.88045 62.1884 8.9185 62.2708 8.99438L65.3715 11.8509C65.4578 11.9304 65.5047 12.0134 65.512 12.0999C65.5193 12.1865 65.485 12.2709 65.4091 12.3533C65.3332 12.4356 65.2501 12.4787 65.1596 12.4824C65.0728 12.4822 64.9863 12.4423 64.9 12.3628L63.6526 11.2137L60.5521 14.5792C60.4618 14.6773 60.3658 14.7303 60.2643 14.7382C60.1666 14.7498 60.0668 14.7086 59.9648 14.6146Z" fill="#FAF5FF"/>
<path d="M62.4897 17.1766C62.4097 17.0767 62.3751 16.9781 62.3858 16.8806C62.4007 16.7798 62.4582 16.6894 62.5581 16.6094L66.4103 13.5232C66.5144 13.4399 66.6151 13.4036 66.7126 13.4143C66.81 13.4251 66.8988 13.4804 66.9788 13.5803C67.0588 13.6802 67.0935 13.7789 67.0827 13.8763C67.0753 13.978 67.0195 14.0705 66.9155 14.1538L65.186 15.5393L65.116 15.4519C65.4225 15.3568 65.7123 15.3603 65.9856 15.4626C66.263 15.5615 66.5034 15.7379 66.7069 15.9918C66.9003 16.2332 67.0145 16.4697 67.0497 16.7012C67.0923 16.9336 67.0537 17.1627 66.934 17.3885C66.8183 17.6109 66.6232 17.8322 66.3484 18.0523L64.7439 19.3378C64.644 19.4178 64.5432 19.4541 64.4416 19.4467C64.3441 19.4359 64.2554 19.3806 64.1754 19.2807C64.092 19.1766 64.0557 19.0759 64.0665 18.9784C64.0814 18.8776 64.1388 18.7872 64.2387 18.7072L65.8058 17.4517C66.068 17.2416 66.2178 17.0362 66.2552 16.8355C66.2958 16.6389 66.2295 16.4323 66.0561 16.2159C65.8527 15.962 65.6102 15.8214 65.3286 15.7941C65.0504 15.771 64.7781 15.8661 64.5117 16.0795L63.0632 17.24C62.851 17.41 62.6598 17.3889 62.4897 17.1766Z" fill="#FAF5FF"/>
<path d="M65.99 22.1389C65.7725 21.7718 65.6538 21.4144 65.6338 21.0667C65.6212 20.7209 65.6998 20.3984 65.8698 20.0994C66.0471 19.8022 66.3147 19.5476 66.6727 19.3356C67.0214 19.129 67.3687 19.0194 67.7145 19.0067C68.0603 18.9941 68.38 19.0682 68.6737 19.229C68.9673 19.3898 69.2078 19.6285 69.3954 19.9451C69.534 20.1792 69.6187 20.4111 69.6494 20.6408C69.6847 20.8679 69.667 21.0891 69.5962 21.3046C69.5328 21.5219 69.4168 21.7238 69.2484 21.9104C69.0827 22.1015 68.8713 22.2732 68.6144 22.4254C68.5363 22.4716 68.4631 22.484 68.3946 22.4626C68.3307 22.4384 68.2716 22.3805 68.2172 22.2887L66.8474 19.976L67.2741 19.7232L68.5298 21.8432L68.3642 21.7833C68.5936 21.6474 68.7683 21.4974 68.8881 21.3335C69.0107 21.1741 69.0738 21.0034 69.0776 20.8214C69.0887 20.6413 69.0371 20.4549 68.923 20.2621C68.7952 20.0465 68.636 19.8928 68.4454 19.8012C68.2575 19.7141 68.0509 19.6846 67.8258 19.7126C67.6006 19.7406 67.3687 19.8252 67.1301 19.9666L67.0888 19.991C66.685 20.2302 66.4355 20.505 66.3405 20.8155C66.2527 21.1278 66.3162 21.4652 66.5309 21.8277C66.6125 21.9654 66.7164 22.0991 66.8428 22.2288C66.972 22.363 67.1209 22.4732 67.2896 22.5592C67.3817 22.61 67.4431 22.6666 67.4739 22.729C67.5073 22.796 67.5166 22.8587 67.5016 22.9171C67.4894 22.9802 67.4584 23.0326 67.4088 23.0744C67.3592 23.1162 67.2964 23.141 67.2204 23.1488C67.149 23.1539 67.07 23.1356 66.9834 23.0939C66.7854 23.0004 66.5977 22.8667 66.4204 22.6929C66.2476 22.5163 66.1041 22.3316 65.99 22.1389Z" fill="#FAF5FF"/>
<path d="M68.3658 27.0748C68.3249 26.9479 68.3286 26.8375 68.3768 26.7435C68.4266 26.6546 68.515 26.5898 68.642 26.5489L73.2569 25.0638C73.3889 25.0214 73.4993 25.025 73.5882 25.0749C73.6821 25.1231 73.7495 25.2107 73.7904 25.3376L74.3761 27.1577C74.5623 27.7364 74.5614 28.2298 74.3733 28.6377C74.1903 29.0439 73.8399 29.3304 73.322 29.497C72.7991 29.6653 72.3423 29.6386 71.9516 29.417C71.566 29.1937 71.2801 28.7927 71.0939 28.2139L70.6331 26.7822L68.8968 27.3409C68.7699 27.3818 68.6603 27.3806 68.568 27.3375C68.4756 27.2944 68.4082 27.2068 68.3658 27.0748ZM71.2652 26.5788L71.6892 27.8962C71.8117 28.277 71.9878 28.5369 72.2174 28.6759C72.4537 28.8184 72.7394 28.8357 73.0745 28.7279C73.4045 28.6217 73.6214 28.4426 73.7253 28.1907C73.8358 27.9422 73.8298 27.6276 73.7073 27.2468L73.2833 25.9294L71.2652 26.5788Z" fill="#FAF5FF"/>
<path d="M69.69 31.8266C69.6657 31.6955 69.6813 31.5896 69.7368 31.5088C69.7976 31.427 69.8909 31.3744 70.0168 31.3511L73.1632 30.7681C73.2943 30.7439 73.4003 30.7595 73.4811 30.815C73.5619 30.8706 73.6135 30.9586 73.6358 31.0793C73.6592 31.2051 73.6426 31.3058 73.586 31.3814C73.5305 31.4622 73.4372 31.5147 73.3061 31.539L72.7318 31.6454L72.7173 31.5668C73.0475 31.5924 73.3147 31.7029 73.5191 31.8982C73.7234 32.0936 73.8713 32.3645 73.9626 32.711C73.9853 32.8045 73.9753 32.8822 73.9326 32.9444C73.8908 33.0118 73.8154 33.0583 73.7062 33.084C73.5981 33.1149 73.5045 33.1078 73.4257 33.0627C73.3521 33.0167 73.2988 32.9344 73.266 32.8157L73.2226 32.6692C73.1279 32.3341 72.9723 32.0945 72.7558 31.9502C72.5392 31.8059 72.271 31.7634 71.9511 31.8226L70.1655 32.1535C70.0396 32.1768 69.9336 32.1612 69.8476 32.1066C69.7678 32.0563 69.7152 31.963 69.69 31.8266Z" fill="#FAF5FF"/>
<path d="M70.2427 36.1729C70.2173 35.779 70.2778 35.4331 70.4242 35.135C70.571 34.8423 70.7909 34.6063 71.084 34.4271C71.377 34.2478 71.7285 34.145 72.1383 34.1185C72.4523 34.0982 72.7347 34.1254 72.9853 34.2001C73.236 34.2748 73.4545 34.389 73.6407 34.5426C73.8327 34.7012 73.9815 34.8947 74.0871 35.1231C74.1983 35.3564 74.2634 35.6194 74.2823 35.9121C74.3074 36.3007 74.2465 36.6413 74.0997 36.934C73.9533 37.2321 73.7335 37.4707 73.4405 37.65C73.1527 37.8289 72.8013 37.9317 72.3862 37.9585C72.0775 37.9784 71.7951 37.9512 71.5391 37.8769C71.2832 37.8026 71.0619 37.6859 70.8752 37.5269C70.6889 37.3733 70.5402 37.1798 70.4289 36.9465C70.3233 36.7182 70.2612 36.4603 70.2427 36.1729ZM70.8654 36.1327C70.8795 36.3509 70.9451 36.5391 71.0622 36.6972C71.1793 36.8553 71.3445 36.9729 71.5579 37.05C71.7717 37.1324 72.0302 37.1638 72.3336 37.1442C72.7913 37.1147 73.1307 36.9912 73.3519 36.7739C73.573 36.5565 73.6729 36.2828 73.6516 35.9528C73.6372 35.7293 73.5714 35.5385 73.4543 35.3804C73.3425 35.2219 73.1798 35.1015 72.966 35.0191C72.7526 34.942 72.4942 34.9132 72.1909 34.9328C71.7385 34.962 71.399 35.0855 71.1726 35.3032C70.9462 35.5209 70.8438 35.7974 70.8654 36.1327Z" fill="#FAF5FF"/>
<path d="M68.88 38.3715C68.8787 38.2753 68.8979 38.1987 68.9376 38.1417C68.9776 38.0793 69.0273 38.0387 69.0869 38.0198C69.1466 37.9956 69.2082 37.9902 69.2717 38.0035C69.3301 38.0113 69.3823 38.0401 69.4282 38.0901C69.4691 38.1345 69.4906 38.1941 69.4928 38.2689C69.4977 38.536 69.5615 38.7335 69.6843 38.8615C69.8068 38.9947 70.0066 39.0671 70.2837 39.0787L73.9205 39.2305C74.0538 39.2361 74.1536 39.275 74.2199 39.3471C74.2861 39.4246 74.3165 39.5273 74.3112 39.6552C74.3056 39.7884 74.2668 39.8856 74.1949 39.9466C74.1227 40.013 74.02 40.0434 73.8868 40.0378L70.3139 39.8886C69.9836 39.8748 69.7141 39.8075 69.5057 39.6867C69.2916 39.571 69.1358 39.4044 69.0381 39.1868C68.9404 38.9692 68.8877 38.6974 68.88 38.3715ZM75.1265 39.6893C75.1331 39.5294 75.1783 39.4058 75.262 39.3186C75.3455 39.2367 75.4592 39.1987 75.6031 39.2047C75.7523 39.211 75.8624 39.2583 75.9335 39.3466C76.0096 39.4406 76.0443 39.5675 76.0377 39.7273C76.031 39.8872 75.9859 40.0081 75.9024 40.09C75.8242 40.1721 75.7106 40.2101 75.5614 40.2039C75.4175 40.1979 75.3074 40.1505 75.231 40.062C75.1546 39.9734 75.1198 39.8491 75.1265 39.6893Z" fill="#FAF5FF"/>
<path d="M69.9302 43.154C69.9918 42.7318 70.1241 42.3792 70.3271 42.0962C70.5346 41.8193 70.7985 41.618 71.1187 41.4922C71.4434 41.3725 71.8115 41.3427 72.2232 41.4028C72.6242 41.4614 72.9632 41.5944 73.2402 41.8019C73.5171 42.0094 73.7192 42.268 73.8465 42.5776C73.9738 42.8873 74.0108 43.2242 73.9577 43.5883C73.9184 43.8575 73.8385 44.091 73.7179 44.289C73.6027 44.4878 73.4498 44.6487 73.2594 44.7719C73.0734 44.901 72.8563 44.9852 72.6081 45.0244C72.359 45.0689 72.0867 45.0696 71.7912 45.0264C71.7015 45.0134 71.6367 44.977 71.5969 44.9172C71.5624 44.8583 71.5529 44.7761 71.5683 44.6705L71.9566 42.0107L72.4474 42.0824L72.0914 44.5205L72.0003 44.3698C72.2641 44.4083 72.4942 44.4014 72.6905 44.3492C72.886 44.3023 73.0424 44.2093 73.1597 44.0701C73.2815 43.937 73.3586 43.7596 73.391 43.5379C73.4272 43.2899 73.4 43.0703 73.3093 42.8792C73.2178 42.6934 73.0758 42.5406 72.883 42.4208C72.6903 42.3011 72.4567 42.2212 72.1823 42.1811L72.1348 42.1742C71.6704 42.1064 71.3037 42.1633 71.0346 42.345C70.77 42.5328 70.6073 42.8351 70.5465 43.252C70.5233 43.4104 70.5202 43.5797 70.537 43.76C70.553 43.9456 70.5996 44.1249 70.6768 44.2978C70.7164 44.3952 70.7286 44.4779 70.7133 44.5457C70.6973 44.6188 70.6651 44.6734 70.6167 44.7095C70.5675 44.7508 70.5105 44.7721 70.4456 44.7734C70.3808 44.7747 70.3163 44.7546 70.2524 44.7129C70.1937 44.672 70.1437 44.6081 70.1025 44.5212C70.0073 44.3241 69.9454 44.1021 69.9167 43.8554C69.8933 43.6094 69.8978 43.3756 69.9302 43.154Z" fill="#FAF5FF"/>
<path d="M68.9994 47.3166C69.1079 46.9316 69.2815 46.6204 69.5202 46.3829C69.7626 46.152 70.0518 46.0008 70.3878 45.9293C70.7289 45.8592 71.0997 45.8806 71.5001 45.9934C71.7978 46.0774 72.0525 46.1962 72.264 46.3501C72.4807 46.5053 72.6487 46.6857 72.7681 46.8911C72.8861 47.1017 72.9562 47.3348 72.9783 47.5904C73.0042 47.8525 72.9766 48.1274 72.8955 48.4148C72.8449 48.5945 72.7639 48.7739 72.6524 48.953C72.5446 49.1388 72.4053 49.299 72.2343 49.4336C72.1745 49.4888 72.1116 49.5154 72.0456 49.5134C71.9834 49.5181 71.9236 49.504 71.8664 49.4712C71.8076 49.4436 71.7617 49.4002 71.7285 49.3409C71.699 49.2883 71.6878 49.2297 71.6949 49.1652C71.7072 49.1022 71.7439 49.0405 71.8053 48.9802C71.9273 48.8816 72.0243 48.7732 72.0964 48.655C72.1736 48.5383 72.2289 48.4209 72.2622 48.3028C72.3143 48.118 72.3298 47.945 72.3087 47.7839C72.2913 47.6294 72.2399 47.4875 72.1544 47.3581C72.0741 47.2302 71.9591 47.1174 71.8093 47.0198C71.658 46.9273 71.4772 46.8514 71.2667 46.7921C70.8458 46.6734 70.4872 46.6776 70.1909 46.8047C69.8984 46.9383 69.7007 47.1874 69.598 47.5519C69.5647 47.6699 69.548 47.7982 69.5477 47.9366C69.5475 48.0751 69.5736 48.2182 69.6262 48.366C69.647 48.4495 69.6436 48.5205 69.6159 48.5793C69.5883 48.638 69.5463 48.6788 69.49 48.7017C69.4374 48.7312 69.3788 48.7424 69.3143 48.7353C69.2535 48.7348 69.1952 48.7155 69.1394 48.6777C69.0836 48.6398 69.0445 48.5817 69.0223 48.5033C68.9505 48.3058 68.9164 48.1023 68.9201 47.8927C68.9223 47.6883 68.9487 47.4963 68.9994 47.3166Z" fill="#FAF5FF"/>
<path d="M67.7074 50.9033C67.8272 50.6066 67.98 50.3779 68.1658 50.2171C68.3516 50.0563 68.5658 49.9674 68.8085 49.9504C69.0512 49.9334 69.3184 49.9839 69.6102 50.1018L71.3607 50.809L71.5405 50.3639C71.5805 50.265 71.6362 50.1984 71.7076 50.164C71.784 50.1315 71.8666 50.1333 71.9557 50.1693C72.0496 50.2072 72.1103 50.2634 72.1378 50.3378C72.1653 50.4122 72.159 50.4988 72.1191 50.5977L71.9393 51.0427L72.7033 51.3514C72.8269 51.4014 72.9079 51.4715 72.9462 51.5617C72.9825 51.6569 72.9767 51.7639 72.9287 51.8825C72.8808 52.0012 72.8117 52.0797 72.7214 52.118C72.6312 52.1563 72.5242 52.1505 72.4006 52.1006L71.6366 51.7919L71.286 52.6598C71.246 52.7587 71.1903 52.8253 71.1189 52.8597C71.0475 52.8941 70.9648 52.8924 70.8708 52.8544C70.7818 52.8185 70.7211 52.7623 70.6887 52.6859C70.6612 52.6115 70.6674 52.5249 70.7074 52.426L71.058 51.5582L69.3668 50.8749C69.1048 50.769 68.885 50.7435 68.7075 50.7983C68.528 50.8581 68.3874 51.0141 68.2855 51.2663C68.2495 51.3553 68.226 51.435 68.2148 51.5053C68.2066 51.5825 68.196 51.6443 68.183 51.6908C68.161 51.7452 68.1233 51.7817 68.0697 51.8004C68.0211 51.821 67.9449 51.8103 67.841 51.7684C67.7669 51.7384 67.7036 51.6956 67.6513 51.64C67.597 51.5893 67.574 51.5253 67.5822 51.4481C67.5864 51.3808 67.602 51.2922 67.6291 51.1823C67.6493 51.0755 67.6754 50.9824 67.7074 50.9033Z" fill="#FAF5FF"/>
<path d="M64.7812 56.2416C64.8471 56.1445 64.9246 56.0779 65.0137 56.0417C65.1041 56.0128 65.2092 56.01 65.3288 56.0333L70.5683 56.9898C70.685 57.0174 70.7704 57.0625 70.8246 57.1251C70.8788 57.1877 70.9055 57.2574 70.9049 57.3343C70.9057 57.4187 70.8791 57.5005 70.8251 57.58C70.7562 57.6814 70.6817 57.7437 70.6017 57.7667C70.5216 57.7896 70.4254 57.7888 70.3132 57.7642L65.3156 56.8075L65.4818 56.5626L68.2301 60.8463C68.287 60.9429 68.3195 61.0327 68.3277 61.1156C68.3329 61.2029 68.3025 61.2951 68.2366 61.3922C68.1826 61.4716 68.1193 61.5221 68.0467 61.5437C67.9754 61.5726 67.9022 61.5713 67.827 61.5396C67.7519 61.5079 67.6814 61.4407 67.6157 61.3381L64.7895 56.8275C64.7238 56.7248 64.6877 56.6262 64.6811 56.5314C64.6789 56.4397 64.7123 56.3431 64.7812 56.2416Z" fill="#FAF5FF"/>
<path d="M62.459 59.2663C62.5433 59.1701 62.6364 59.1205 62.7383 59.1175C62.8442 59.1181 62.9492 59.1641 63.0535 59.2555L65.4 61.3118C65.5043 61.4032 65.5617 61.4996 65.5721 61.6009C65.5826 61.7023 65.5456 61.8011 65.4613 61.8974C65.3769 61.9936 65.2838 62.0432 65.1819 62.0462C65.0766 62.0531 64.9717 62.0109 64.8675 61.9195L62.521 59.8632C62.4167 59.7718 62.3573 59.6736 62.3428 59.5688C62.3324 59.4674 62.3711 59.3666 62.459 59.2663ZM66.087 62.4457C66.1924 62.3254 66.3051 62.2575 66.425 62.242C66.5415 62.2306 66.6538 62.2723 66.7621 62.3672C66.8744 62.4656 66.9305 62.5715 66.9304 62.6849C66.9308 62.8058 66.8783 62.9265 66.7729 63.0468C66.6674 63.1671 66.5565 63.233 66.4401 63.2445C66.3242 63.2634 66.2101 63.2237 66.0978 63.1253C65.9895 63.0304 65.9351 62.9225 65.9347 62.8016C65.9308 62.6847 65.9815 62.566 66.087 62.4457Z" fill="#FAF5FF"/>
<path d="M59.8708 61.886C60.1832 61.5953 60.5071 61.4032 60.8425 61.3096C61.1777 61.2236 61.5095 61.2317 61.8379 61.3341C62.166 61.4441 62.4718 61.6513 62.7552 61.9558C63.0313 62.2526 63.2124 62.5685 63.2984 62.9037C63.3845 63.2389 63.3802 63.5671 63.2856 63.8882C63.1911 64.2093 63.0091 64.4952 62.7397 64.7459C62.5405 64.9312 62.332 65.0633 62.1141 65.1423C61.8997 65.2251 61.6798 65.2549 61.4542 65.2317C61.2284 65.2161 61.0064 65.1458 60.7882 65.021C60.5661 64.8998 60.3534 64.7298 60.1499 64.5112C60.0882 64.4448 60.0605 64.3759 60.0668 64.3044C60.0768 64.2368 60.1208 64.1667 60.1989 64.0941L62.1668 62.263L62.5046 62.6261L60.7008 64.3046L60.724 64.13C60.9057 64.3252 61.0894 64.4639 61.2751 64.546C61.4569 64.6318 61.6372 64.6572 61.8158 64.6221C61.9941 64.5945 62.1653 64.5045 62.3293 64.3519C62.5128 64.1811 62.629 63.9929 62.6779 63.7871C62.723 63.5849 62.7078 63.3768 62.6325 63.1628C62.5572 62.9487 62.4251 62.7402 62.2361 62.5372L62.2034 62.502C61.8837 62.1584 61.5621 61.9733 61.2385 61.9465C60.9147 61.9273 60.5985 62.0612 60.2901 62.3482C60.1729 62.4572 60.0645 62.5873 59.9647 62.7384C59.861 62.8932 59.7851 63.0622 59.737 63.2453C59.7069 63.3462 59.6647 63.4182 59.6103 63.4615C59.552 63.5085 59.4927 63.5309 59.4324 63.5287C59.3682 63.5302 59.3104 63.5111 59.259 63.4715C59.2076 63.432 59.17 63.3759 59.1462 63.3033C59.126 63.2347 59.1271 63.1536 59.1493 63.06C59.1985 62.8467 59.2891 62.6349 59.4212 62.4245C59.557 62.2181 59.7068 62.0386 59.8708 61.886Z" fill="#FAF5FF"/>
<path d="M56.798 64.4103C56.8918 64.3491 56.9889 64.3174 57.0896 64.3154C57.1886 64.3207 57.2918 64.3616 57.3991 64.438L60.0861 66.3995C60.1802 66.4654 60.2424 66.5362 60.2728 66.612C60.3061 66.6921 60.3091 66.7698 60.2818 66.845C60.25 66.9231 60.1895 66.9914 60.1002 67.0497C60.0198 67.1023 59.942 67.1245 59.8666 67.1164C59.7897 67.1157 59.6983 67.0735 59.5926 66.9897L57.1003 65.0921L57.261 64.987L57.9829 68.0801C58.0071 68.1853 58.0055 68.2755 57.9782 68.3507C57.9509 68.4259 57.8948 68.4912 57.81 68.5467C57.7252 68.6021 57.6429 68.6272 57.563 68.6221C57.4787 68.6198 57.3955 68.5851 57.3132 68.5178L54.79 66.6021L54.9373 66.5058L55.6706 69.5723C55.702 69.6984 55.7025 69.7967 55.6723 69.8675C55.6376 69.9411 55.5846 70.0013 55.5131 70.048C55.4239 70.1063 55.3423 70.1278 55.2685 70.1123C55.1902 70.0998 55.1255 70.0593 55.0743 69.9907C55.0216 69.9296 54.9846 69.8487 54.9634 69.7479L54.2451 66.4996C54.2211 66.3751 54.2287 66.2649 54.268 66.1691C54.3029 66.0763 54.365 66.0007 54.4543 65.9423C54.548 65.881 54.6467 65.8516 54.7502 65.854C54.8492 65.8593 54.951 65.898 55.0553 65.9699L57.6517 67.8951L57.3169 68.1139L56.5888 64.9676C56.5603 64.846 56.5658 64.7374 56.6051 64.6416C56.64 64.5487 56.7043 64.4716 56.798 64.4103Z" fill="#FAF5FF"/>
<path d="M48.3761 68.6547C48.5026 68.6127 48.6131 68.6154 48.7075 68.6628C48.7968 68.7118 48.8624 68.7996 48.9044 68.9262L50.3453 73.2694L51.955 72.7354C52.0613 72.7001 52.1541 72.7002 52.2333 72.7357C52.3142 72.7763 52.3723 72.8498 52.4076 72.9561C52.4428 73.0624 52.4393 73.1535 52.397 73.2293C52.3548 73.3051 52.2805 73.3607 52.1742 73.3959L48.1726 74.7235C48.0613 74.7604 47.966 74.7611 47.8868 74.7256C47.8075 74.6901 47.7503 74.6192 47.715 74.5129C47.6798 74.4065 47.6824 74.3129 47.723 74.2321C47.7653 74.1562 47.8421 74.0998 47.9535 74.0629L49.5632 73.5288L48.1223 69.1856C48.0803 69.0591 48.0805 68.9494 48.1228 68.8567C48.16 68.7657 48.2445 68.6984 48.3761 68.6547Z" fill="#FAF5FF"/>
<path d="M44.9031 69.6205C45.0293 69.5992 45.1324 69.6169 45.2123 69.6737C45.2931 69.7358 45.3441 69.8299 45.3655 69.9562L46.1876 74.8232C46.2098 74.9547 46.1925 75.0604 46.1356 75.1403C46.0788 75.2202 45.9873 75.2708 45.8611 75.2921C45.7349 75.3135 45.6318 75.2957 45.5519 75.2389C45.4667 75.183 45.4131 75.0893 45.3908 74.9578L45.0218 72.7727L45.1322 72.7541C45.0662 73.0681 44.9221 73.3196 44.6998 73.5086C44.4784 73.7029 44.2073 73.8271 43.8865 73.8813C43.5815 73.9328 43.3193 73.9176 43.1 73.8357C42.8762 73.7599 42.6948 73.6147 42.5558 73.4002C42.4177 73.191 42.3193 72.9128 42.2607 72.5657L41.9183 70.5384C41.897 70.4122 41.9143 70.3065 41.9702 70.2213C42.027 70.1414 42.1185 70.0908 42.2447 70.0695C42.3762 70.0473 42.4819 70.0646 42.5618 70.1214C42.6426 70.1835 42.6937 70.2776 42.715 70.4038L43.0494 72.3838C43.1054 72.7151 43.212 72.9459 43.3692 73.0762C43.5212 73.2074 43.7339 73.2499 44.0074 73.2037C44.3282 73.1495 44.569 73.0061 44.7298 72.7734C44.8854 72.5416 44.9347 72.2574 44.8779 71.9208L44.5687 70.0907C44.5234 69.8225 44.6349 69.6658 44.9031 69.6205Z" fill="#FAF5FF"/>
<path d="M38.8595 70.264C39.286 70.2526 39.656 70.3227 39.9695 70.4744C40.2778 70.6315 40.5213 70.857 40.6999 71.151C40.8733 71.4505 40.9656 71.8081 40.9768 72.224C40.9876 72.6292 40.9145 72.9859 40.7574 73.2943C40.6003 73.6026 40.38 73.8459 40.0967 74.0242C39.8134 74.2026 39.4878 74.2967 39.1199 74.3065C38.848 74.3138 38.6042 74.275 38.3886 74.1901C38.173 74.1105 37.9883 73.9874 37.8345 73.8208C37.6754 73.6597 37.5554 73.4602 37.4743 73.2222C37.3879 72.9845 37.3407 72.7163 37.3327 72.4177C37.3302 72.3271 37.355 72.2571 37.4071 72.2077C37.4592 72.1636 37.5386 72.1401 37.6453 72.1373L40.3323 72.0652L40.3456 72.561L37.8825 72.6271L38.0154 72.5115C38.0226 72.778 38.0686 73.0036 38.1536 73.188C38.2333 73.3726 38.3517 73.5108 38.5089 73.6026C38.6608 73.6999 38.8488 73.7456 39.0727 73.7396C39.3233 73.7329 39.535 73.6685 39.7078 73.5465C39.8752 73.4246 40.0015 73.2585 40.0866 73.0482C40.1716 72.8378 40.2104 72.594 40.203 72.3168L40.2017 72.2688C40.1891 71.7996 40.0703 71.448 39.8453 71.214C39.6151 70.9854 39.2894 70.8767 38.8682 70.888C38.7083 70.8923 38.5409 70.9182 38.3661 70.9655C38.186 71.013 38.0173 71.0896 37.8601 71.1952C37.7709 71.2509 37.6916 71.2771 37.6221 71.2736C37.5473 71.2702 37.488 71.2478 37.4442 71.2063C37.3951 71.165 37.3644 71.1124 37.352 71.0487C37.3396 70.985 37.3485 70.9181 37.3786 70.848C37.4089 70.7831 37.4633 70.723 37.5418 70.6675C37.7198 70.54 37.9279 70.4411 38.1661 70.3707C38.4044 70.3056 38.6356 70.2701 38.8595 70.264Z" fill="#FAF5FF"/>
<path d="M33.3628 69.9448C33.4937 69.9706 33.5885 70.0274 33.6473 70.1151C33.7008 70.2017 33.7147 70.3105 33.6889 70.4413L32.7504 75.1976C32.7235 75.3336 32.6668 75.4284 32.5801 75.482C32.4924 75.5408 32.3831 75.5573 32.2523 75.5315L30.3765 75.1613C29.78 75.0436 29.349 74.8037 29.0834 74.4414C28.8168 74.0844 28.7362 73.639 28.8415 73.1053C28.9478 72.5663 29.1926 72.1798 29.5759 71.9455C29.9581 71.7165 30.4475 71.6609 31.044 71.7786L32.5195 72.0697L32.8726 70.2802C32.8984 70.1494 32.9526 70.0541 33.0351 69.9943C33.1175 69.9344 33.2268 69.9179 33.3628 69.9448ZM32.391 72.7212L31.0332 72.4532C30.6407 72.3758 30.3281 72.4038 30.0952 72.5372C29.856 72.6749 29.7023 72.9164 29.6342 73.2617C29.5671 73.6018 29.6185 73.8783 29.7885 74.0913C29.9522 74.3084 30.2303 74.4557 30.6228 74.5331L31.9806 74.8011L32.391 72.7212Z" fill="#FAF5FF"/>
<path d="M28.5601 68.7971C28.6866 68.8395 28.7716 68.9045 28.8154 68.9923C28.8574 69.0851 28.8581 69.1922 28.8174 69.3136L27.8013 72.3479C27.7589 72.4744 27.6939 72.5595 27.6061 72.6032C27.5184 72.6469 27.4163 72.6493 27.3 72.6103C27.1786 72.5697 27.0986 72.5063 27.0599 72.4203C27.0162 72.3325 27.0155 72.2254 27.0578 72.099L27.2433 71.5452L27.3192 71.5706C27.1366 71.847 26.9104 72.0271 26.6404 72.1111C26.3704 72.195 26.0618 72.1929 25.7145 72.1047C25.6218 72.0793 25.5586 72.0328 25.525 71.9653C25.4863 71.8961 25.4822 71.8075 25.5127 71.6996C25.5381 71.5901 25.5897 71.5117 25.6673 71.4646C25.7433 71.4225 25.8411 71.4159 25.9608 71.4448L26.11 71.4779C26.4489 71.5576 26.734 71.5378 26.9652 71.4183C27.1964 71.2989 27.3637 71.085 27.467 70.7765L28.0437 69.0545C28.0843 68.9331 28.1494 68.848 28.2388 68.7992C28.3215 68.7538 28.4286 68.7531 28.5601 68.7971Z" fill="#FAF5FF"/>
<path d="M24.4841 67.1687C24.8407 67.3379 25.1136 67.5589 25.3029 67.8318C25.4874 68.1023 25.5868 68.4092 25.601 68.7525C25.6152 69.0957 25.5343 69.4528 25.3582 69.8238C25.2233 70.1081 25.0623 70.3417 24.8752 70.5244C24.6881 70.7072 24.4822 70.8426 24.2573 70.9308C24.0254 71.0214 23.784 71.0574 23.5331 71.0387C23.2751 71.0225 23.0136 70.9516 22.7486 70.8258C22.3969 70.6589 22.1288 70.4402 21.9443 70.1696C21.755 69.8968 21.6532 69.5887 21.639 69.2455C21.6225 68.9071 21.7034 68.5499 21.8818 68.1741C22.0144 67.8946 22.1754 67.6611 22.3648 67.4735C22.5542 67.2859 22.7637 67.1492 22.9933 67.0634C23.2181 66.9753 23.4596 66.9393 23.7175 66.9555C23.9684 66.9742 24.2239 67.0452 24.4841 67.1687ZM24.2166 67.7325C24.0191 67.6387 23.8227 67.6046 23.6276 67.6301C23.4325 67.6555 23.2494 67.7428 23.0784 67.8918C22.9024 68.0386 22.7493 68.2493 22.619 68.5239C22.4224 68.9383 22.3653 69.295 22.4478 69.5938C22.5303 69.8927 22.7209 70.1131 23.0196 70.2548C23.222 70.3509 23.4207 70.3862 23.6158 70.3607C23.8086 70.34 23.993 70.2563 24.1689 70.1095C24.34 69.9605 24.4907 69.7486 24.621 69.474C24.8154 69.0644 24.8724 68.7078 24.7922 68.4041C24.712 68.1004 24.5202 67.8765 24.2166 67.7325Z" fill="#FAF5FF"/>
<path d="M23.2677 64.9314C23.3523 64.977 23.4099 65.031 23.4405 65.0935C23.4755 65.1588 23.4868 65.222 23.4744 65.2832C23.4665 65.3471 23.4412 65.4036 23.3987 65.4526C23.3635 65.4999 23.3129 65.5314 23.2469 65.5473C23.1882 65.5613 23.1257 65.5512 23.0592 65.5167C22.8235 65.391 22.6199 65.3507 22.4484 65.3958C22.2724 65.4381 22.112 65.5775 21.9671 65.8139L20.0655 68.9178C19.9959 69.0315 19.9134 69.0998 19.818 69.1227C19.7182 69.1428 19.6136 69.1194 19.5045 69.0525C19.3908 68.9829 19.3248 68.9018 19.3064 68.8092C19.2835 68.7139 19.3069 68.6094 19.3766 68.4957L21.2447 65.4464C21.4174 65.1645 21.6072 64.9618 21.8142 64.8384C22.0194 64.7076 22.2408 64.6525 22.4784 64.673C22.716 64.6935 22.9791 64.7796 23.2677 64.9314ZM19.0782 69.7483C19.2147 69.8319 19.3006 69.9315 19.3361 70.0471C19.3671 70.1599 19.345 70.2777 19.2698 70.4005C19.1918 70.5278 19.0969 70.601 18.9851 70.6201C18.866 70.641 18.7382 70.6096 18.6018 70.526C18.4654 70.4424 18.3817 70.3442 18.3507 70.2314C18.3169 70.1232 18.3391 70.0054 18.4171 69.8781C18.4923 69.7553 18.5872 69.6821 18.7017 69.6584C18.8163 69.6348 18.9418 69.6648 19.0782 69.7483Z" fill="#FAF5FF"/>
<path d="M18.5845 63.5256C18.9234 63.7849 19.1671 64.072 19.3156 64.387C19.4566 64.703 19.5041 65.0315 19.4583 65.3724C19.4049 65.7143 19.2518 66.0505 18.9991 66.3809C18.7528 66.7028 18.4717 66.9343 18.1557 67.0753C17.8397 67.2164 17.5154 67.2671 17.183 67.2277C16.8505 67.1883 16.5382 67.0568 16.2459 66.8332C16.0298 66.668 15.8646 66.4846 15.7503 66.2829C15.6327 66.0855 15.5664 65.8737 15.5515 65.6474C15.5291 65.4221 15.5611 65.1915 15.6476 64.9555C15.7299 64.7163 15.8618 64.478 16.0432 64.2408C16.0983 64.1688 16.1616 64.1299 16.2331 64.1242C16.3014 64.1227 16.3779 64.1544 16.4626 64.2192L18.5977 65.8523L18.2963 66.2462L16.3392 64.7492L16.5153 64.7429C16.3533 64.9547 16.2473 65.1591 16.1975 65.3559C16.1434 65.5496 16.1486 65.7315 16.2131 65.9017C16.2701 66.0729 16.3876 66.2266 16.5655 66.3627C16.7647 66.5149 16.9697 66.598 17.1808 66.6117C17.3877 66.6222 17.5903 66.5724 17.7887 66.4622C17.987 66.3521 18.1705 66.1869 18.339 65.9666L18.3681 65.9285C18.6533 65.5557 18.7819 65.2076 18.754 64.8841C18.7187 64.5616 18.5337 64.2724 18.199 64.0164C18.0719 63.9192 17.9255 63.8341 17.7598 63.761C17.5899 63.6848 17.4106 63.6383 17.2219 63.6215C17.1175 63.6088 17.0394 63.5793 16.9876 63.5329C16.9315 63.4833 16.8995 63.4286 16.8915 63.3688C16.8793 63.3058 16.8884 63.2456 16.9188 63.1883C16.9492 63.1309 16.9982 63.0845 17.0657 63.0488C17.13 63.0174 17.2102 63.0049 17.3061 63.0111C17.5247 63.0238 17.7487 63.0777 17.9782 63.1727C18.2045 63.2719 18.4066 63.3895 18.5845 63.5256Z" fill="#FAF5FF"/>
<path d="M15.3961 60.6885C15.68 60.9702 15.8679 61.273 15.9597 61.597C16.0439 61.921 16.0358 62.2473 15.9353 62.5757C15.831 62.908 15.6323 63.2218 15.3393 63.5171C15.1215 63.7367 14.8939 63.9017 14.6568 64.012C14.4159 64.1261 14.1766 64.1855 13.9391 64.1902C13.6977 64.1911 13.4599 64.1392 13.2257 64.0346C12.9839 63.9299 12.757 63.7724 12.545 63.5621C12.4125 63.4306 12.2949 63.2727 12.1924 63.0883C12.0823 62.9039 12.0099 62.7043 11.9751 62.4895C11.9559 62.4104 11.9632 62.3425 11.9969 62.2858C12.0231 62.2291 12.0644 62.1837 12.1208 62.1495C12.1735 62.1116 12.2337 62.0925 12.3016 62.0922C12.362 62.092 12.4186 62.1106 12.4715 62.1481C12.5207 62.1894 12.5568 62.2515 12.5798 62.3344C12.6068 62.4889 12.6544 62.6264 12.7228 62.7468C12.7874 62.871 12.8632 62.9763 12.9503 63.0627C13.0866 63.1979 13.2303 63.2954 13.3814 63.3551C13.5249 63.4149 13.674 63.4388 13.8286 63.4269C13.9794 63.4188 14.1338 63.3729 14.2919 63.2893C14.4462 63.202 14.6003 63.0807 14.7543 62.9255C15.0624 62.615 15.2327 62.2994 15.2654 61.9788C15.2905 61.6581 15.1687 61.3644 14.8999 61.0977C14.8128 61.0113 14.7088 60.9344 14.5878 60.867C14.4669 60.7996 14.3291 60.753 14.1743 60.7272C14.0913 60.7049 14.0308 60.6674 13.9929 60.6148C13.955 60.5621 13.9397 60.5056 13.947 60.4453C13.9467 60.3849 13.9654 60.3283 14.0029 60.2753C14.0328 60.2224 14.0779 60.1808 14.1381 60.1503C14.1984 60.1199 14.2681 60.114 14.3474 60.1326C14.5549 60.1657 14.7494 60.2347 14.9308 60.3396C15.1085 60.4407 15.2636 60.557 15.3961 60.6885Z" fill="#FAF5FF"/>
<path d="M12.8796 57.8142C13.0812 58.0628 13.2073 58.3073 13.258 58.5476C13.3087 58.788 13.2828 59.0185 13.1801 59.2391C13.0774 59.4597 12.9039 59.669 12.6594 59.8672L11.1929 61.0563L11.4952 61.4291C11.5624 61.512 11.5937 61.593 11.5893 61.6721C11.5806 61.7546 11.539 61.8261 11.4645 61.8866C11.3858 61.9504 11.3072 61.9763 11.2288 61.9644C11.1505 61.9524 11.0777 61.905 11.0105 61.8221L10.7082 61.4493L10.0682 61.9682C9.9646 62.0522 9.86405 62.0891 9.76653 62.0789C9.66565 62.0645 9.5749 62.0077 9.49429 61.9082C9.41368 61.8088 9.37846 61.7103 9.38865 61.6128C9.39884 61.5153 9.45572 61.4246 9.55929 61.3406L10.1993 60.8216L9.60985 60.0946C9.54267 60.0117 9.51132 59.9307 9.5158 59.8516C9.52028 59.7724 9.56188 59.7009 9.64059 59.6371C9.71516 59.5766 9.7937 59.5507 9.87622 59.5593C9.9546 59.5713 10.0274 59.6187 10.0946 59.7016L10.684 60.4286L12.1009 59.2799C12.3204 59.1019 12.4492 58.9219 12.4871 58.7401C12.5217 58.5541 12.4534 58.3555 12.2821 58.1442C12.2216 58.0697 12.1633 58.0105 12.1072 57.9667C12.0436 57.9221 11.9947 57.8829 11.9603 57.849C11.9233 57.8034 11.9097 57.7527 11.9193 57.6968C11.9248 57.6443 11.971 57.5828 12.058 57.5122C12.1202 57.4619 12.1883 57.4273 12.2623 57.4085C12.3329 57.3855 12.4 57.3963 12.4636 57.4409C12.5205 57.4771 12.5904 57.5337 12.6734 57.6107C12.7571 57.6801 12.8259 57.7479 12.8796 57.8142Z" fill="#FAF5FF"/>
<path d="M9.62247 52.673C9.67556 52.7777 9.69643 52.8777 9.68506 52.9732C9.66653 53.0663 9.61818 53.1596 9.54002 53.2531L6.16898 57.3766C6.08841 57.4654 6.00763 57.5183 5.92663 57.5355C5.84564 57.5527 5.77163 57.5424 5.70463 57.5046C5.63045 57.4645 5.57164 57.4016 5.52821 57.316C5.4727 57.2066 5.45425 57.1113 5.47286 57.0301C5.49146 56.9489 5.53867 56.8652 5.61449 56.7788L8.86871 52.8671L9.00264 53.131L3.92417 53.465C3.81208 53.4681 3.71778 53.4531 3.64126 53.4202C3.56233 53.3825 3.49632 53.3113 3.44323 53.2067C3.39979 53.1211 3.3862 53.0413 3.40246 52.9672C3.41155 52.8908 3.44815 52.8274 3.51225 52.777C3.57636 52.7265 3.66921 52.6973 3.7908 52.6894L9.10565 52.397C9.22725 52.3891 9.3311 52.4052 9.4172 52.4452C9.49855 52.4877 9.56697 52.5636 9.62247 52.673Z" fill="#FAF5FF"/>
<path d="M8.10223 49.1819C8.14557 49.3024 8.14385 49.4078 8.09707 49.4984C8.04527 49.5907 7.95414 49.6603 7.82366 49.7073L4.88796 50.7637C4.75749 50.8107 4.64538 50.8142 4.55165 50.7742C4.45792 50.7343 4.38938 50.6541 4.34604 50.5336C4.3027 50.4132 4.30442 50.3077 4.3512 50.2172C4.39617 50.1217 4.48389 50.0504 4.61437 50.0035L7.55007 48.947C7.68054 48.9001 7.79516 48.8957 7.89391 48.9338C7.98764 48.9738 8.05708 49.0565 8.10223 49.1819ZM3.56319 50.8154C3.61736 50.9659 3.62216 51.0974 3.57759 51.2098C3.53121 51.3172 3.44027 51.3952 3.30478 51.444C3.16427 51.4946 3.04444 51.4923 2.94529 51.4373C2.83931 51.3791 2.75924 51.2747 2.70506 51.1242C2.65088 50.9736 2.64698 50.8446 2.69336 50.7373C2.73292 50.6267 2.82295 50.5461 2.96347 50.4955C3.09896 50.4468 3.21969 50.4515 3.32567 50.5097C3.42984 50.5629 3.50901 50.6648 3.56319 50.8154Z" fill="#FAF5FF"/>
<path d="M7.06679 45.6413C7.16906 46.0555 7.1796 46.432 7.09841 46.7706C7.01077 47.1054 6.84242 47.3914 6.59337 47.6287C6.33786 47.8621 6.00817 48.0286 5.60429 48.1283C5.21078 48.2255 4.84663 48.2303 4.51187 48.1426C4.1771 48.055 3.89235 47.8918 3.65763 47.6531C3.42291 47.4144 3.26144 47.1164 3.17323 46.7591C3.10804 46.4951 3.09388 46.2486 3.13077 46.0198C3.16248 45.7922 3.24328 45.5855 3.37318 45.3996C3.49662 45.2098 3.6659 45.0499 3.881 44.9199C4.09483 44.7847 4.34672 44.6813 4.63668 44.6097C4.72471 44.588 4.79841 44.5972 4.8578 44.6375C4.912 44.6791 4.95189 44.7516 4.97746 44.8552L5.62176 47.4648L5.14022 47.5837L4.54961 45.1915L4.69094 45.2967C4.43205 45.3606 4.22158 45.4538 4.05953 45.5762C3.8962 45.6935 3.78647 45.8387 3.73034 46.0118C3.66776 46.1811 3.66331 46.3745 3.717 46.5919C3.77709 46.8353 3.88518 47.0283 4.04128 47.1711C4.1961 47.3087 4.38534 47.3965 4.60901 47.4347C4.83268 47.4729 5.07914 47.4587 5.34839 47.3922L5.39499 47.3807C5.85064 47.2682 6.16876 47.0771 6.34935 46.8073C6.52349 46.5335 6.56006 46.1921 6.45907 45.7831C6.42071 45.6278 6.35973 45.4698 6.27613 45.3091C6.19124 45.1433 6.08043 44.9949 5.9437 44.8638C5.87019 44.7886 5.82771 44.7167 5.81627 44.6481C5.80355 44.5743 5.81279 44.5116 5.84399 44.46C5.8739 44.4031 5.91865 44.3619 5.97823 44.3362C6.03781 44.3105 6.10509 44.3049 6.18007 44.3193C6.24987 44.335 6.32025 44.3753 6.39121 44.4402C6.55376 44.5869 6.69487 44.769 6.81453 44.9867C6.92901 45.2056 7.0131 45.4238 7.06679 45.6413Z" fill="#FAF5FF"/>
<path d="M6.35531 41.7431C6.36326 41.8549 6.34367 41.9552 6.29653 42.0441C6.2437 42.128 6.1578 42.1983 6.03885 42.2549L3.01822 43.6489C2.91485 43.6991 2.8227 43.719 2.74177 43.7087C2.65551 43.6988 2.58617 43.6636 2.53375 43.6032C2.48095 43.5375 2.45076 43.4514 2.44318 43.345C2.43637 43.2492 2.45482 43.1704 2.49853 43.1085C2.53654 43.0416 2.61787 42.9823 2.74252 42.9307L5.61265 41.6757L5.62628 41.8672L2.57255 40.9939C2.46883 40.9638 2.39075 40.9186 2.33833 40.8582C2.2859 40.7977 2.25609 40.717 2.2489 40.6159C2.2417 40.5148 2.25977 40.4307 2.3031 40.3634C2.34606 40.2908 2.41694 40.235 2.51575 40.1959L5.41666 38.9227L5.42915 39.0982L2.39309 38.2477C2.2677 38.2138 2.18146 38.1665 2.13435 38.1057C2.08687 38.0396 2.0601 37.9639 2.05404 37.8788C2.04647 37.7724 2.06739 37.6907 2.1168 37.6337C2.16583 37.5714 2.23272 37.5346 2.31745 37.5232C2.39649 37.5069 2.48522 37.5139 2.58363 37.5444L5.77128 38.4964C5.89173 38.536 5.98424 38.5962 6.04882 38.6772C6.11302 38.7528 6.1489 38.8438 6.15648 38.9502C6.16443 39.0619 6.14218 39.1624 6.08972 39.2517C6.03688 39.3357 5.95365 39.4058 5.84002 39.462L2.89521 40.7945L2.8668 40.3955L5.97011 41.2893C6.09018 41.3236 6.1825 41.3812 6.24708 41.4621C6.31128 41.5377 6.34736 41.6314 6.35531 41.7431Z" fill="#FAF5FF"/>
<path d="M6.73821 32.2697C6.71355 32.4007 6.65763 32.496 6.57045 32.5556C6.48425 32.6099 6.37563 32.6248 6.2446 32.6001L1.74751 31.754L1.4339 33.4207C1.41319 33.5308 1.36809 33.6118 1.29861 33.6639C1.22387 33.715 1.13148 33.7301 1.02141 33.7094C0.911338 33.6887 0.833393 33.6415 0.787572 33.5677C0.741751 33.494 0.729196 33.4021 0.749905 33.292L1.52948 29.1487C1.55117 29.0334 1.59677 28.9497 1.66625 28.8977C1.73574 28.8456 1.82552 28.83 1.93559 28.8507C2.04566 28.8714 2.12623 28.9191 2.17729 28.9938C2.22311 29.0676 2.23517 29.1621 2.21348 29.2774L1.89987 30.9442L6.39696 31.7903C6.528 31.815 6.62379 31.8683 6.68435 31.9502C6.7459 32.0269 6.76385 32.1334 6.73821 32.2697Z" fill="#FAF5FF"/>
<path d="M7.5779 28.7567C7.53531 28.8774 7.46978 28.9589 7.38133 29.0012C7.28784 29.0418 7.18075 29.0407 7.06004 28.9982L2.40536 27.3556C2.27962 27.3112 2.1956 27.2448 2.15329 27.1564C2.11098 27.0679 2.11112 26.9633 2.15372 26.8426C2.19631 26.7219 2.26184 26.6404 2.35029 26.5981C2.44052 26.5508 2.5485 26.5493 2.67424 26.5937L4.76394 27.3311L4.72667 27.4367C4.48407 27.2267 4.33407 26.9786 4.27666 26.6925C4.21422 26.4047 4.23713 26.1074 4.34539 25.8006C4.44833 25.5089 4.58884 25.287 4.76693 25.1349C4.94176 24.976 5.15669 24.8879 5.4117 24.8704C5.66168 24.8511 5.95265 24.9001 6.28458 25.0172L8.22341 25.7014C8.34411 25.744 8.42814 25.8104 8.47548 25.9006C8.51779 25.9891 8.51764 26.0937 8.47505 26.2144C8.43068 26.3401 8.36427 26.4241 8.27581 26.4664C8.18233 26.507 8.07524 26.5059 7.95453 26.4633L6.06097 25.7951C5.74412 25.6833 5.49058 25.6646 5.30036 25.7388C5.11192 25.8081 4.97155 25.9734 4.87926 26.235C4.771 26.5418 4.77959 26.8219 4.90504 27.0755C5.03227 27.324 5.25682 27.505 5.5787 27.6186L7.32892 28.2362C7.58542 28.3267 7.66841 28.5002 7.5779 28.7567Z" fill="#FAF5FF"/>
<path d="M9.948 23.1671C9.75059 23.5453 9.5094 23.8346 9.22444 24.0348C8.93721 24.2278 8.62173 24.3308 8.27799 24.344C7.93199 24.3499 7.57459 24.2566 7.20579 24.0641C6.84646 23.8766 6.57028 23.6392 6.37728 23.352C6.18427 23.0647 6.07874 22.754 6.0607 22.4197C6.04265 22.0854 6.11876 21.7552 6.28902 21.4289C6.41487 21.1878 6.56734 20.9936 6.74642 20.8464C6.92078 20.6968 7.11815 20.5953 7.33855 20.5418C7.55668 20.4812 7.7894 20.4733 8.03672 20.5182C8.2865 20.5583 8.54378 20.6475 8.80855 20.7857C8.88893 20.8276 8.93806 20.8833 8.95593 20.9528C8.96908 21.0198 8.95098 21.1006 8.90163 21.1952L7.65794 23.5782L7.21822 23.3487L8.35827 21.1643L8.39464 21.3367C8.15823 21.2133 7.93878 21.1439 7.73628 21.1284C7.53625 21.1083 7.3579 21.1445 7.20123 21.2372C7.0423 21.3227 6.91102 21.4648 6.80738 21.6633C6.6914 21.8856 6.6447 22.1018 6.66729 22.3122C6.69234 22.5177 6.77609 22.7088 6.91854 22.8855C7.06099 23.0621 7.25514 23.2145 7.50101 23.3429L7.54356 23.3651C7.95963 23.5822 8.32464 23.6494 8.63858 23.5666C8.95026 23.4766 9.20357 23.2448 9.39851 22.8713C9.47254 22.7294 9.53136 22.5706 9.57497 22.3949C9.62104 22.2144 9.63618 22.0298 9.62037 21.841C9.61504 21.736 9.63078 21.654 9.66758 21.595C9.70686 21.5312 9.75528 21.4903 9.81285 21.4722C9.87288 21.4494 9.93373 21.4481 9.99541 21.4683C10.0571 21.4884 10.1112 21.5287 10.1579 21.5892C10.1998 21.6471 10.2259 21.7239 10.2362 21.8195C10.2611 22.037 10.2463 22.267 10.192 22.5094C10.133 22.7493 10.0516 22.9685 9.948 23.1671Z" fill="#FAF5FF"/>
<path d="M12.8912 18.545C12.805 18.6467 12.7093 18.7019 12.604 18.7106C12.5022 18.7152 12.4005 18.6744 12.2988 18.5882L8.60035 15.4537C8.49457 15.3641 8.43937 15.2683 8.43475 15.1665C8.42606 15.0613 8.46482 14.9578 8.55103 14.8561L9.78723 13.3975C10.1803 12.9337 10.5997 12.6739 11.0454 12.6182C11.4871 12.559 11.9154 12.7053 12.3304 13.0571C12.7495 13.4122 12.9681 13.8142 12.9862 14.263C13.0002 14.7084 12.8107 15.163 12.4176 15.6268L11.4452 16.7742L12.8367 17.9535C12.9384 18.0397 12.9953 18.1334 13.0075 18.2345C13.0196 18.3357 12.9808 18.4392 12.8912 18.545ZM10.9387 16.3449L11.8335 15.289C12.0921 14.9839 12.2198 14.6971 12.2166 14.4287C12.2127 14.1528 12.0765 13.901 11.808 13.6735C11.5435 13.4493 11.2769 13.3597 11.0082 13.4046C10.7388 13.4419 10.4748 13.6132 10.2162 13.9184L9.32137 14.9742L10.9387 16.3449Z" fill="#FAF5FF"/>
<path d="M16.2153 14.9185C16.117 15.0085 16.0188 15.0514 15.9209 15.0471C15.8193 15.0389 15.7253 14.9876 15.6388 14.8932L13.4772 12.5337C13.3872 12.4354 13.3443 12.3372 13.3486 12.2393C13.3529 12.1413 13.4002 12.0509 13.4907 11.968C13.5851 11.8816 13.6793 11.8423 13.7733 11.8502C13.8712 11.8545 13.9653 11.9058 14.0553 12.0041L14.4498 12.4347L14.3908 12.4887C14.2376 12.1951 14.1897 11.9099 14.2471 11.6331C14.3045 11.3563 14.456 11.0874 14.7014 10.8263C14.7686 10.7575 14.8399 10.7248 14.9152 10.7281C14.9945 10.7278 15.074 10.7671 15.1535 10.8461C15.2371 10.9215 15.2806 11.0045 15.2842 11.0953C15.2842 11.1821 15.2425 11.2709 15.1593 11.3616L15.058 11.4761C14.824 11.7339 14.7032 11.9928 14.6956 12.2529C14.688 12.5131 14.794 12.7631 15.0138 13.003L16.2405 14.342C16.327 14.4364 16.3699 14.5345 16.3692 14.6364C16.3688 14.7308 16.3175 14.8248 16.2153 14.9185Z" fill="#FAF5FF"/>
<path d="M19.6209 12.136C19.3003 12.3662 18.9749 12.4981 18.6445 12.5318C18.3184 12.5624 18.0018 12.5009 17.6945 12.3473C17.3872 12.1937 17.1138 11.9501 16.8743 11.6165C16.6907 11.3609 16.5642 11.107 16.4948 10.8549C16.4253 10.6027 16.4064 10.3569 16.4381 10.1175C16.4709 9.87069 16.5562 9.64201 16.694 9.43149C16.8329 9.21352 17.0215 9.01899 17.2598 8.8479C17.576 8.6208 17.8972 8.49197 18.2232 8.46139C18.5536 8.4277 18.8724 8.48766 19.1797 8.64126C19.4838 8.79053 19.7573 9.03412 19.9999 9.37203C20.1803 9.62329 20.3068 9.87717 20.3794 10.1337C20.4519 10.3902 20.4702 10.6397 20.4343 10.8822C20.4026 11.1216 20.3173 11.3502 20.1784 11.5682C20.0407 11.7787 19.8548 11.968 19.6209 12.136ZM19.2569 11.6291C19.4346 11.5016 19.5594 11.3463 19.6315 11.1632C19.7036 10.9801 19.7158 10.7776 19.6681 10.5558C19.6247 10.3309 19.5144 10.0949 19.3371 9.84799C19.0696 9.47542 18.785 9.25294 18.4835 9.18054C18.182 9.10814 17.897 9.16838 17.6284 9.36125C17.4465 9.49191 17.3194 9.64877 17.2474 9.83185C17.1722 10.0106 17.1563 10.2124 17.1996 10.4374C17.2473 10.6592 17.3598 10.8936 17.5371 11.1405C17.8015 11.5088 18.086 11.7312 18.3906 11.808C18.6952 11.8847 18.984 11.8251 19.2569 11.6291Z" fill="#FAF5FF"/>
<path d="M22.1615 12.1567C22.0807 12.2088 22.0055 12.2331 21.9361 12.2296C21.862 12.2288 21.8012 12.2081 21.7537 12.1676C21.7015 12.1298 21.6642 12.0804 21.6419 12.0195C21.6175 11.9659 21.6144 11.9063 21.6324 11.8409C21.6484 11.7827 21.6876 11.7329 21.7498 11.6913C21.9738 11.5457 22.1075 11.3869 22.1509 11.215C22.1989 11.0405 22.1545 10.8327 22.0175 10.5916L20.2192 7.42676C20.1533 7.31084 20.1334 7.20561 20.1594 7.11107C20.1901 7.0139 20.2611 6.9337 20.3724 6.87047C20.4883 6.8046 20.5912 6.78599 20.6811 6.81466C20.7756 6.84069 20.8558 6.91166 20.9217 7.02759L22.6884 10.1367C22.8517 10.4242 22.9374 10.6884 22.9454 10.9292C22.9607 11.172 22.902 11.3925 22.7692 11.5906C22.6364 11.7888 22.4338 11.9775 22.1615 12.1567ZM19.9693 6.161C19.8301 6.24004 19.7014 6.26718 19.5831 6.24242C19.4693 6.21502 19.3769 6.13872 19.3058 6.01352C19.232 5.88368 19.2138 5.76522 19.2511 5.65815C19.2904 5.5438 19.3796 5.44711 19.5187 5.36806C19.6578 5.28902 19.7842 5.26319 19.8979 5.29059C20.009 5.31336 20.1014 5.38965 20.1752 5.51949C20.2464 5.64469 20.2646 5.76315 20.2299 5.87486C20.1953 5.98657 20.1084 6.08195 19.9693 6.161Z" fill="#FAF5FF"/>
<path d="M25.6652 8.73136C25.2743 8.90241 24.9051 8.97666 24.5576 8.95409C24.2128 8.9245 23.9024 8.80711 23.6263 8.60192C23.353 8.3897 23.1329 8.09304 22.9661 7.71193C22.8036 7.3406 22.7372 6.98254 22.7668 6.63776C22.7963 6.29298 22.9088 5.98468 23.1043 5.71287C23.2997 5.44105 23.566 5.23138 23.9031 5.08385C24.1523 4.9748 24.3928 4.91905 24.6246 4.91658C24.8542 4.90923 25.0716 4.9538 25.2769 5.05028C25.4848 5.13974 25.6711 5.27943 25.8358 5.46937C26.0053 5.65716 26.1499 5.88787 26.2696 6.16148C26.306 6.24454 26.3093 6.31875 26.2797 6.38411C26.248 6.44458 26.1832 6.49619 26.0855 6.53896L23.623 7.61659L23.4241 7.1622L25.6815 6.17436L25.6018 6.33149C25.4949 6.08719 25.3673 5.89558 25.2192 5.75664C25.076 5.61557 24.9143 5.53206 24.7341 5.50612C24.5567 5.47315 24.3653 5.50157 24.1601 5.59137C23.9305 5.69187 23.7586 5.83114 23.6444 6.00919C23.5351 6.1851 23.4806 6.38651 23.4809 6.61341C23.4812 6.84031 23.537 7.0808 23.6482 7.33487L23.6674 7.37884C23.8556 7.80881 24.0979 8.08989 24.3945 8.2221C24.6937 8.34728 25.0364 8.32541 25.4224 8.1565C25.569 8.09235 25.7143 8.00545 25.8584 7.89581C26.0075 7.78402 26.1349 7.64964 26.2409 7.49266C26.3026 7.40745 26.3662 7.35339 26.4319 7.33048C26.5024 7.30544 26.5658 7.3039 26.622 7.32589C26.6831 7.34573 26.7313 7.38283 26.7668 7.43718C26.8022 7.49154 26.8192 7.55689 26.8176 7.63324C26.814 7.7047 26.7862 7.78089 26.7343 7.86183C26.6173 8.0469 26.4618 8.21686 26.2676 8.37171C26.0712 8.52168 25.8704 8.64156 25.6652 8.73136Z" fill="#FAF5FF"/>
<path d="M29.6822 7.32149C29.2981 7.43308 28.9421 7.45042 28.6143 7.37348C28.2901 7.28994 28.0088 7.12453 27.7703 6.87723C27.5304 6.62482 27.3524 6.29887 27.2363 5.89939C27.15 5.60234 27.1162 5.32337 27.1348 5.06248C27.1519 4.79648 27.2161 4.55846 27.3272 4.34845C27.4435 4.13694 27.6042 3.95418 27.8094 3.80015C28.0182 3.63952 28.266 3.51754 28.5528 3.43422C28.7321 3.38214 28.9272 3.356 29.1382 3.35579C29.3528 3.34898 29.5625 3.38248 29.7672 3.4563C29.8457 3.47793 29.9016 3.51724 29.9348 3.57423C29.9716 3.62462 29.9913 3.68277 29.9938 3.7487C30.0014 3.81313 29.9889 3.87509 29.9562 3.93458C29.9271 3.98745 29.8833 4.02794 29.8248 4.05604C29.7649 4.07901 29.6931 4.08043 29.6095 4.06029C29.4613 4.00893 29.3179 3.98393 29.1795 3.98528C29.0395 3.9815 28.9106 3.99673 28.7929 4.03095C28.6085 4.08452 28.4535 4.16286 28.328 4.26598C28.2061 4.36249 28.1128 4.48122 28.0482 4.62217C27.9822 4.75799 27.9473 4.91529 27.9437 5.09406C27.9453 5.27134 27.9765 5.46497 28.0375 5.67496C28.1595 6.09492 28.3528 6.39699 28.6174 6.58117C28.8856 6.75873 29.2015 6.79469 29.5651 6.68905C29.6829 6.65482 29.8006 6.60119 29.9182 6.52814C30.0358 6.45509 30.1435 6.35718 30.2411 6.2344C30.3009 6.17259 30.363 6.13789 30.4274 6.13027C30.4919 6.12266 30.5487 6.1367 30.598 6.17237C30.6508 6.20144 30.6913 6.24522 30.7194 6.3037C30.7512 6.35558 30.7657 6.41522 30.7631 6.48263C30.7604 6.55004 30.7318 6.6139 30.6771 6.67422C30.5474 6.83963 30.3927 6.97621 30.213 7.08397C30.0384 7.19024 29.8614 7.26941 29.6822 7.32149Z" fill="#FAF5FF"/>
<path d="M33.425 6.51849C33.1098 6.57362 32.8348 6.56487 32.6001 6.49222C32.3655 6.41957 32.1767 6.28474 32.034 6.08772C31.8912 5.8907 31.7928 5.63721 31.7385 5.32725L31.4132 3.46749L30.9404 3.55019C30.8353 3.56857 30.7493 3.55655 30.6823 3.51412C30.6144 3.46644 30.5722 3.39532 30.5557 3.30075C30.5382 3.20094 30.5538 3.1197 30.6024 3.05706C30.651 2.99442 30.7278 2.9539 30.8329 2.93553L31.3057 2.85282L31.1637 2.04114C31.1408 1.90981 31.1575 1.80401 31.2138 1.72377C31.2754 1.64261 31.3693 1.591 31.4953 1.56895C31.6214 1.54689 31.7246 1.56404 31.8048 1.62039C31.8851 1.67674 31.9367 1.77059 31.9597 1.90193L32.1016 2.7136L33.0236 2.55233C33.1287 2.53395 33.2147 2.54597 33.2817 2.5884C33.3487 2.63083 33.3909 2.70195 33.4084 2.80177C33.4249 2.89633 33.4093 2.97756 33.3617 3.04546C33.3131 3.1081 33.2362 3.14862 33.1311 3.16699L32.2091 3.32827L32.5234 5.12499C32.5721 5.40343 32.6667 5.60346 32.8071 5.72509C32.9527 5.8458 33.1595 5.88273 33.4274 5.83586C33.522 5.81932 33.602 5.7972 33.6676 5.76949C33.7375 5.73561 33.7956 5.71191 33.8419 5.69838C33.8997 5.68827 33.9507 5.70102 33.9948 5.73661C34.038 5.76696 34.0693 5.83729 34.0886 5.94762C34.1024 6.02642 34.0995 6.10273 34.0799 6.17654C34.0656 6.24943 34.0235 6.30281 33.9536 6.33669C33.8942 6.36873 33.8108 6.40228 33.7032 6.43734C33.6018 6.47674 33.5091 6.50378 33.425 6.51849Z" fill="#FAF5FF"/>
</svg>
