<svg width="38" height="20" viewBox="0 0 38 20" fill="none" xmlns="http://www.w3.org/2000/svg">
<g clip-path="url(#clip0_2039_1159)">
<path d="M37.8948 0.00195312H0V19.9676H37.8948V0.00195312Z" fill="white"/>
<path d="M37.9652 8.00513H21.2497V0.00292969H16.687V8.00513H0.015625V12.004H16.687V20.0029H21.2497V12.004H37.9652V8.00513Z" fill="#CE1124"/>
<path d="M0 2.32715V6.67423H8.26541L0 2.32715Z" fill="#00247D"/>
<path d="M4.55958 0.000976562L4.43848 0.00648132L15.1558 5.67298V0.000976562H4.55958Z" fill="#00247D"/>
<path d="M12.7195 6.64628L0 0.00195312V1.56801L9.68857 6.64628H12.7195Z" fill="#CE1124"/>
<path d="M25.1846 13.3213L37.9041 19.9656V18.3996L28.2155 13.3213H25.1846Z" fill="#CE1124"/>
<path d="M0 17.6743V13.3271H8.26541L0 17.6743Z" fill="#00247D"/>
<path d="M4.55958 20.0001L4.43848 19.9946L15.1558 14.3281V20.0001H4.55958Z" fill="#00247D"/>
<path d="M12.6549 13.3203L0.00878906 19.9617L2.96637 19.9646L15.1688 13.5904V13.3203H12.6549Z" fill="#CE1124"/>
<path d="M37.905 2.32617V6.67324H29.6396L37.905 2.32617Z" fill="#00247D"/>
<path d="M33.3452 0L33.4663 0.00548571L22.749 5.67196V0H33.3452Z" fill="#00247D"/>
<path d="M37.8928 0.00901763L35.0481 0.00878906L22.7598 6.42791V6.65311H25.3596L37.8928 0.00901763Z" fill="#CE1124"/>
<path d="M37.905 17.6733V13.3262H29.6396L37.905 17.6733Z" fill="#00247D"/>
<path d="M33.3452 19.9991L33.4663 19.9936L22.749 14.3271V19.9991H33.3452Z" fill="#00247D"/>
</g>
<defs>
<clipPath id="clip0_2039_1159">
<rect width="37.9048" height="20" fill="white"/>
</clipPath>
</defs>
</svg>
