<svg width="14" height="20" viewBox="0 0 14 20" fill="none" xmlns="http://www.w3.org/2000/svg">
<g clip-path="url(#clip0_2039_1191)">
<path d="M7.65269 6.66667H3.84603C2.00603 6.66667 0.512695 5.17333 0.512695 3.33333C0.512695 1.49333 2.00603 0 3.84603 0H7.65269V6.66667Z" fill="#E64A1A"/>
<path d="M7.17936 13.3337H3.84603C2.00603 13.3337 0.512695 11.8403 0.512695 10.0003C0.512695 8.16033 2.00603 6.66699 3.84603 6.66699H7.17936V13.3337Z" fill="#58529D"/>
<path d="M3.84603 19.9997C2.00603 19.9997 0.512695 18.5063 0.512695 16.6663C0.512695 14.8263 2.00603 13.333 3.84603 13.333H7.17936V16.6663C7.17936 18.5063 5.68603 19.9997 3.84603 19.9997Z" fill="#67B66A"/>
<path d="M10.513 6.66667H7.17969V0H10.513C12.353 0 13.8464 1.49333 13.8464 3.33333C13.8464 5.17333 12.353 6.66667 10.513 6.66667Z" fill="#ED6F49"/>
<path d="M10.513 13.3327C12.354 13.3327 13.8464 11.8403 13.8464 9.99935C13.8464 8.1584 12.354 6.66602 10.513 6.66602C8.67207 6.66602 7.17969 8.1584 7.17969 9.99935C7.17969 11.8403 8.67207 13.3327 10.513 13.3327Z" fill="#3FB1E5"/>
</g>
<defs>
<clipPath id="clip0_2039_1191">
<rect width="13.3333" height="20" fill="white" transform="translate(0.512695)"/>
</clipPath>
</defs>
</svg>
