<svg width="22" height="20" viewBox="0 0 22 20" fill="none" xmlns="http://www.w3.org/2000/svg">
<path d="M7.66838 19.9893C7.98907 19.8503 8.20286 19.5404 8.20286 19.1662V16.7611C8.20286 16.6756 8.20286 16.5794 8.22424 16.4939C8.22424 16.4939 8.21355 16.4939 8.20286 16.4939H6.59944C5.926 16.4939 5.34877 16.2266 5.08153 15.6921C4.77154 15.1149 4.63257 14.1315 3.83086 13.597C3.6919 13.5115 3.78811 13.3725 4.05534 13.3725C4.32258 13.4153 4.89981 13.7787 5.26325 14.2598C5.66945 14.7515 6.06496 15.147 6.78116 15.147C7.89286 15.147 8.48078 15.0935 8.84423 14.9011C9.26112 14.2811 9.83835 13.8108 10.437 13.8108C7.90355 13.7146 6.28944 12.8808 5.54118 11.5767C3.90569 11.5981 2.48399 11.7584 1.67159 11.8974C1.65021 11.7477 1.61814 11.6088 1.60745 11.4591C2.40917 11.3308 3.76673 11.1705 5.32739 11.1384C5.27394 11.0102 5.23119 10.8926 5.19912 10.7643C3.62776 10.6895 2.28089 10.7429 1.54332 10.8071C1.54332 10.6574 1.52194 10.5078 1.52194 10.3581C2.25951 10.294 3.57432 10.2405 5.10291 10.3047C5.07084 10.0802 5.04946 9.85569 5.04946 9.62052C5.04946 8.86157 5.3167 8.05986 5.80842 7.38642C5.58394 6.62747 5.27394 5.02405 5.89393 4.43613C7.10184 4.43613 7.94631 5.01336 8.35251 5.3768C9.11146 5.06681 9.95593 4.88509 10.8966 4.88509C11.8373 4.88509 12.6817 5.06681 13.3979 5.3768C13.8041 5.02405 14.6486 4.43613 15.8565 4.43613C16.53 5.05612 16.1665 6.67023 15.942 7.38642C16.4338 8.05986 16.701 8.81881 16.6582 9.62052C16.6582 9.83431 16.6369 10.0481 16.6048 10.2512C18.1654 10.1764 19.5123 10.2405 20.2606 10.294C20.2606 10.4436 20.2499 10.5933 20.2392 10.7429C19.4909 10.6788 18.112 10.6146 16.5086 10.7002C16.4658 10.8498 16.4231 10.9995 16.3589 11.1384C17.941 11.1598 19.3306 11.3095 20.1751 11.4484C20.1537 11.5981 20.1323 11.7477 20.1109 11.8867C19.2558 11.7477 17.802 11.5874 16.1451 11.5874C15.3969 12.8701 13.8148 13.7039 11.3349 13.8108C12.5 13.8215 13.569 15.5639 13.569 16.7718V19.1769C13.569 19.5404 13.7935 19.861 14.1034 20C18.1868 18.6424 21.1478 14.7942 21.1478 10.2619C21.1478 4.60716 16.5406 0 10.8859 0C5.23119 0 0.624023 4.58578 0.624023 10.2405C0.624023 14.7728 3.58501 18.6317 7.66838 19.9786V19.9893Z" fill="black"/>
</svg>
