<svg width="22" height="22" viewBox="0 0 22 22" fill="none" xmlns="http://www.w3.org/2000/svg">
<path d="M14.1186 9.39343C15.006 9.39343 15.7255 8.67401 15.7255 7.78656C15.7255 6.89911 15.006 6.17969 14.1186 6.17969C13.2311 6.17969 12.5117 6.89911 12.5117 7.78656C12.5117 8.67401 13.2311 9.39343 14.1186 9.39343Z" stroke="black" stroke-width="1.2" stroke-miterlimit="10" stroke-linecap="round"/>
<path d="M18.12 1H3.88005C2.28944 1 1 2.28944 1 3.88005V18.12C1 19.7106 2.28944 21 3.88005 21H18.12C19.7106 21 21 19.7106 21 18.12V3.88005C21 2.28944 19.7106 1 18.12 1Z" stroke="black" stroke-width="1.2" stroke-miterlimit="10" stroke-linecap="round"/>
<path d="M5.88037 13.8545C6.73786 12.9724 7.59534 12.0909 8.45283 11.2089C9.10769 10.5352 10.1856 10.5227 10.8561 11.1807L16.1201 16.3476" stroke="black" stroke-width="1.2" stroke-miterlimit="10" stroke-linecap="round"/>
</svg>
