<svg width="30" height="30" viewBox="0 0 30 30" fill="none" xmlns="http://www.w3.org/2000/svg">
<rect width="30" height="30" rx="5" fill="#5BC8AC"/>
<path d="M18.8771 25H11.1229C7.74232 25 5 22.2577 5 18.8771V11.1229C5 7.74232 7.74232 5 11.1229 5H18.8771C22.2577 5 25 7.74232 25 11.1229V18.8771C25 22.2577 22.2577 25 18.8771 25ZM11.1229 6.50118C8.56974 6.50118 6.50118 8.58156 6.50118 11.1229V18.8771C6.50118 21.4303 8.58156 23.4988 11.1229 23.4988H18.8771C21.4303 23.4988 23.4988 21.4184 23.4988 18.8771V11.1229C23.4988 8.56974 21.4184 6.50118 18.8771 6.50118H11.1229Z" fill="white"/>
<path d="M15 20.0586C12.2104 20.0586 9.94092 17.7891 9.94092 14.9995C9.94092 12.2099 12.2104 9.94043 15 9.94043C17.7896 9.94043 20.0591 12.2099 20.0591 14.9995C20.0591 17.7891 17.7896 20.0586 15 20.0586ZM15 11.4771C13.0615 11.4771 11.4776 13.061 11.4776 14.9995C11.4776 16.9381 13.0615 18.522 15 18.522C16.9386 18.522 18.5225 16.9381 18.5225 14.9995C18.5225 13.061 16.9386 11.4771 15 11.4771Z" fill="white"/>
<path d="M20.6148 10.6974C21.3394 10.6974 21.9268 10.1099 21.9268 9.3853C21.9268 8.66067 21.3394 8.07324 20.6148 8.07324C19.8902 8.07324 19.3027 8.66067 19.3027 9.3853C19.3027 10.1099 19.8902 10.6974 20.6148 10.6974Z" fill="white"/>
</svg>
