<svg width="20" height="20" viewBox="0 0 20 20" fill="none" xmlns="http://www.w3.org/2000/svg">
<path d="M5.89209 2.48321C5.89209 1.50964 6.67035 0.728516 7.61538 0.728516H17.2658C18.222 0.728516 18.9891 1.52096 18.9891 2.48321V17.517C18.9891 18.4905 18.2109 19.2717 17.2658 19.2717H7.61538C6.65923 19.2717 5.89209 18.4792 5.89209 17.517" stroke="black" stroke-width="1.2" stroke-linecap="round" stroke-linejoin="round"/>
<path d="M1.40062 17.7885C1.28944 17.7885 1.18938 17.7546 1.11156 17.6753C1.03373 17.5961 0.989258 17.5055 0.989258 17.381C0.989258 17.2565 1.03373 17.1546 1.11156 17.0753C1.18938 16.9961 1.28944 16.9621 1.40062 16.9621C1.85646 16.9621 2.25671 16.8602 2.59025 16.6678C2.93491 16.464 3.20175 16.1923 3.40187 15.8414C3.60199 15.4904 3.69094 15.0829 3.69094 14.6301V7.58867C3.69094 7.46415 3.72429 7.36226 3.80212 7.29434C3.87994 7.22641 3.96889 7.18113 4.09119 7.18113C4.21349 7.18113 4.31355 7.21509 4.39137 7.29434C4.4692 7.36226 4.50255 7.46415 4.50255 7.58867V14.6301C4.50255 15.2414 4.36914 15.7961 4.1023 16.2716C3.83547 16.747 3.46858 17.1206 3.00162 17.3923C2.53466 17.664 2.001 17.7999 1.38951 17.7999L1.40062 17.7885ZM4.08007 5.61889C3.9133 5.61889 3.76876 5.56229 3.64647 5.43776C3.52417 5.31323 3.46858 5.16607 3.46858 4.98494C3.46858 4.78117 3.53529 4.62268 3.65758 4.52079C3.791 4.41891 3.93553 4.3623 4.09119 4.3623C4.24684 4.3623 4.38026 4.41891 4.51367 4.52079C4.64709 4.62268 4.70268 4.78117 4.70268 4.98494C4.70268 5.16607 4.64709 5.31323 4.52479 5.43776C4.40249 5.56229 4.25796 5.61889 4.08007 5.61889Z" fill="black"/>
<path d="M9.66116 14.6869C9.1942 14.6869 8.71613 14.5964 8.2047 14.4266C7.69327 14.2568 7.27078 13.9624 6.93724 13.5549C6.87053 13.4643 6.83718 13.3624 6.8483 13.2605C6.85942 13.1587 6.91501 13.0681 7.01507 13.0002C7.10401 12.9322 7.20407 12.9096 7.30414 12.9322C7.4042 12.9549 7.49314 13.0002 7.54873 13.0794C7.80445 13.3851 8.11575 13.6002 8.49377 13.7247C8.86066 13.8492 9.26091 13.9058 9.70563 13.9058C10.4505 13.9058 10.9842 13.77 11.2955 13.4983C11.6068 13.2266 11.7625 12.9096 11.7625 12.5473C11.7625 12.1851 11.5957 11.9021 11.2622 11.6757C10.9286 11.4492 10.4172 11.2794 9.71675 11.1776C8.82731 11.053 8.17134 10.804 7.73774 10.4417C7.30414 10.0795 7.09289 9.6606 7.09289 9.17381C7.09289 8.72099 7.20408 8.33609 7.42644 8.03043C7.6488 7.71345 7.94898 7.48704 8.33811 7.32855C8.72724 7.17006 9.17197 7.09082 9.66116 7.09082C10.2615 7.09082 10.773 7.20403 11.1954 7.41912C11.6179 7.64553 11.9515 7.93986 12.2072 8.31344C12.2739 8.40401 12.3072 8.50589 12.285 8.60778C12.2628 8.70967 12.1961 8.80023 12.0738 8.85683C11.9848 8.90212 11.8959 8.91344 11.7958 8.90212C11.6958 8.87947 11.6179 8.83419 11.5401 8.74363C11.3177 8.44929 11.0509 8.2342 10.7285 8.08703C10.4172 7.93987 10.0503 7.86062 9.6278 7.86062C9.0719 7.86062 8.62718 7.98515 8.31588 8.22288C8.00457 8.47193 7.84892 8.76627 7.84892 9.10589C7.84892 9.34362 7.91563 9.54739 8.03793 9.72852C8.17134 9.90965 8.38259 10.0568 8.67165 10.1813C8.96072 10.3059 9.36097 10.3964 9.85016 10.4757C10.5172 10.5662 11.0398 10.7247 11.4289 10.9398C11.8181 11.1549 12.096 11.404 12.2517 11.6983C12.4073 11.9926 12.4963 12.287 12.4963 12.6153C12.4963 13.0455 12.3628 13.4077 12.096 13.7247C11.8292 14.0417 11.4734 14.2794 11.0398 14.4492C10.6062 14.619 10.1281 14.6983 9.6278 14.6983L9.66116 14.6869Z" fill="black"/>
</svg>
