<svg width="30" height="30" viewBox="0 0 30 30" fill="none" xmlns="http://www.w3.org/2000/svg">
<rect width="30" height="30" rx="5" fill="#5BC8AC"/>
<path d="M25.7321 17.2624V24.9997H21.2512V17.7854C21.2512 15.9783 20.6084 14.7978 18.9806 14.7978C18.4765 14.8013 17.9857 14.9596 17.5747 15.2508C17.1637 15.5421 16.8514 15.9524 16.6806 16.4264C16.5637 16.7772 16.5126 17.1468 16.5308 17.5165V24.985H12.0498V11.5421H16.5308V13.4389C16.9382 12.7324 17.5299 12.1506 18.2433 11.7557C18.9568 11.3608 19.7641 11.1683 20.579 11.1984C23.5659 11.1984 25.7321 13.1252 25.7321 17.2624Z" fill="white"/>
<path d="M9.93956 7.34503C9.93956 7.6755 9.86954 8.00177 9.73441 8.30283C9.59998 8.60459 9.40254 8.87415 9.15609 9.094C8.90964 9.31385 8.61977 9.47978 8.30541 9.5799C7.99034 9.68002 7.65847 9.71223 7.3301 9.67512C6.71187 9.67512 6.11954 9.42937 5.68265 8.99248C5.24575 8.55558 5 7.96256 5 7.34503C5 6.72749 5.24575 6.13447 5.68265 5.69757C6.11954 5.25998 6.71187 5.01493 7.3301 5.01493C7.65847 4.97782 7.99034 5.01003 8.30541 5.11015C8.61977 5.21027 8.90964 5.3755 9.15609 5.59605C9.40254 5.8159 9.59998 6.08546 9.73441 6.38652C9.86954 6.68828 9.93956 7.01455 9.93956 7.34503Z" fill="white"/>
<path d="M9.5708 11.5566H5.08984V24.9995H9.5708V11.5566Z" fill="white"/>
</svg>
