<svg width="20" height="20" viewBox="0 0 20 20" fill="none" xmlns="http://www.w3.org/2000/svg">
<path d="M10 20C8.62847 20 7.33507 19.7396 6.11979 19.2188C4.90451 18.6979 3.84115 17.9818 2.92969 17.0703C2.01823 16.1589 1.30208 15.0955 0.78125 13.8802C0.260417 12.6649 0 11.3715 0 10C0 8.61111 0.260417 7.31337 0.78125 6.10677C1.30208 4.90017 2.01823 3.84115 2.92969 2.92969C3.84115 2.01823 4.90451 1.30208 6.11979 0.78125C7.33507 0.260417 8.62847 0 10 0C11.0938 0 12.1354 0.164931 13.125 0.494792C14.1146 0.824653 15.026 1.2934 15.8594 1.90104L14.5052 3.25521C13.8628 2.80382 13.1597 2.46094 12.3958 2.22656C11.6319 1.99219 10.8333 1.875 10 1.875C7.74306 1.875 5.82465 2.66493 4.24479 4.24479C2.66493 5.82465 1.875 7.74306 1.875 10C1.875 12.2569 2.66493 14.1753 4.24479 15.7552C5.82465 17.3351 7.74306 18.125 10 18.125C12.2569 18.125 14.1753 17.3351 15.7552 15.7552C17.3351 14.1753 18.125 12.2569 18.125 10C18.125 9.63542 18.099 9.27517 18.0469 8.91927C17.9948 8.56337 17.9253 8.21181 17.8385 7.86458L19.3229 6.38021C19.5486 6.93576 19.7179 7.51736 19.8307 8.125C19.9436 8.73264 20 9.35764 20 10C20 11.3715 19.7396 12.6649 19.2188 13.8802C18.6979 15.0955 17.9818 16.1589 17.0703 17.0703C16.1589 17.9818 15.0998 18.6979 13.8932 19.2188C12.6866 19.7396 11.3889 20 10 20ZM8.56771 14.5052L4.375 10.3125L5.72917 8.95833L8.59375 11.8229L18.6719 1.74479L20 3.07292L8.56771 14.5052Z" fill="#E3C7FF"/>
</svg>
