<svg width="22" height="22" viewBox="0 0 22 22" fill="none" xmlns="http://www.w3.org/2000/svg">
<path d="M20.452 4.96282C20.0814 4.8875 19.7732 5.23382 19.5195 5.4624C18.813 6.1308 18.168 6.86934 17.4347 7.50744C17.0061 7.85117 16.4797 7.73428 15.9714 7.61307C14.8476 7.44857 14.5377 7.11263 14.374 6.00353C14.2987 5.64682 14.1965 5.27884 14.2822 4.95243C14.3524 4.66325 14.561 4.43122 14.7671 4.22343C15.4926 3.4009 16.4866 2.74029 17.0165 1.77751C17.1749 1.06321 16.0624 1 15.5723 1C12.5731 1.00606 10.1402 3.60523 10.2865 6.59661C10.2692 7.19575 10.6242 7.87542 10.2389 8.41309C7.41289 11.4278 4.33233 14.2192 1.51845 17.2452C0.0734064 18.9708 1.88815 21.6358 4.0267 20.8626C4.48385 20.7085 4.86742 20.3976 5.20855 20.0608C7.85533 17.4219 10.4978 14.7759 13.1359 12.1352C13.6285 11.6166 13.9636 11.4815 14.6736 11.6304C18.0174 12.3127 21.3438 9.29881 20.9585 5.8979C20.9144 5.55937 20.8035 5.05893 20.452 4.96196V4.96282Z" stroke="black" stroke-width="1.2" stroke-linecap="round" stroke-linejoin="round"/>
</svg>
