<svg width="15" height="22" viewBox="0 0 15 22" fill="none" xmlns="http://www.w3.org/2000/svg">
<path d="M8.14 7.66667H4.33333C2.49333 7.66667 1 6.17333 1 4.33333C1 2.49333 2.49333 1 4.33333 1H8.14V7.66667Z" stroke="black" stroke-width="0.8"/>
<path d="M7.66667 14.3337H4.33333C2.49333 14.3337 1 12.8403 1 11.0003C1 9.16033 2.49333 7.66699 4.33333 7.66699H7.66667V14.3337Z" stroke="black" stroke-width="0.8"/>
<path d="M4.33333 20.9997C2.49333 20.9997 1 19.5063 1 17.6663C1 15.8263 2.49333 14.333 4.33333 14.333H7.66667V17.6663C7.66667 19.5063 6.17333 20.9997 4.33333 20.9997Z" stroke="black" stroke-width="0.8"/>
<path d="M10.9998 7.66667H7.6665V1H10.9998C12.8398 1 14.3332 2.49333 14.3332 4.33333C14.3332 6.17333 12.8398 7.66667 10.9998 7.66667Z" stroke="black" stroke-width="0.8"/>
<path d="M10.9998 14.3337C12.8408 14.3337 14.3332 12.8413 14.3332 11.0003C14.3332 9.15938 12.8408 7.66699 10.9998 7.66699C9.15889 7.66699 7.6665 9.15938 7.6665 11.0003C7.6665 12.8413 9.15889 14.3337 10.9998 14.3337Z" stroke="black" stroke-width="0.8"/>
</svg>
