<svg width="21" height="22" viewBox="0 0 21 22" fill="none" xmlns="http://www.w3.org/2000/svg">
<path d="M5.63428 19.3254C5.97934 19.1797 6.35095 19.2301 6.70901 19.1873C7.07845 19.1428 7.45168 19.1228 7.82383 19.1038C8.31136 19.0789 8.79132 19.1542 9.2626 19.2669C9.98794 19.4397 10.7062 19.6428 11.4332 19.8081C12.2582 19.9955 12.989 19.7793 13.6 19.2013C14.5128 18.3373 15.4125 17.4592 16.3188 16.5882C17.3594 15.5877 18.3973 14.5844 19.4428 13.5893C19.7207 13.325 19.8133 13.0102 19.7202 12.656C19.5571 12.0352 18.7603 11.7172 18.2056 12.2107C17.2803 13.0346 16.3654 13.871 15.4461 14.702C15.4423 14.7052 15.4331 14.702 15.4261 14.702" stroke="black" stroke-linecap="round" stroke-linejoin="round"/>
<path d="M4.2151 14.7837C4.10568 14.6694 4.05368 14.5259 4.01305 14.378C3.90742 13.9923 3.61869 13.8065 3.20266 13.9176C2.60192 14.0779 2.00496 14.2583 1.41938 14.4663C1.05427 14.5963 0.931308 14.8975 1.03586 15.2491C1.34138 16.2729 1.66965 17.2902 1.98329 18.3119C2.20485 19.0334 2.4172 19.7576 2.63279 20.4808C2.7498 20.8725 3.11058 21.1011 3.50764 20.9554C4.04285 20.7593 4.60026 20.6255 5.14629 20.4597C5.58832 20.3259 5.66795 20.0193 5.64466 19.6694C5.61865 19.2804 5.40631 18.9711 5.30284 18.6174C4.97403 17.4906 4.61597 16.3731 4.27957 15.2485C4.24002 15.1158 4.18097 14.9723 4.2346 14.8244" stroke="black" stroke-linecap="round" stroke-linejoin="round"/>
<path d="M10.4595 17.2164C10.953 17.2099 11.447 17.2164 11.9394 17.1915C12.2845 17.1741 12.6231 17.0912 12.9324 16.9304C13.726 16.517 14.5174 16.0994 15.304 15.6731C15.6555 15.4824 15.7314 14.9813 15.2872 14.659C15.0461 14.484 14.7948 14.3497 14.4941 14.3394C14.2048 14.3296 13.9248 14.4055 13.6426 14.458C13.0418 14.5702 12.4405 14.6796 11.8381 14.7809C11.6794 14.8074 11.524 14.7413 11.3728 14.7002C10.407 14.4342 9.44382 14.159 8.47363 13.9098C7.48881 13.6568 6.54951 13.782 5.63403 14.1953C5.17033 14.4044 4.71313 14.6281 4.23535 14.8047" stroke="black" stroke-linecap="round" stroke-linejoin="round"/>
<path d="M6.13285 2.19931C5.95192 2.23398 5.72928 2.44741 5.58573 2.59313C4.96277 3.16409 5.33817 3.47286 5.66265 4.04814C5.81487 4.28053 5.69569 4.53243 5.60198 4.76753C5.4568 5.1673 5.19895 5.27348 4.80405 5.35852C4.11013 5.5102 4.07167 5.74151 4.07763 6.41322C4.0733 7.25285 4.71576 7.10226 5.26667 7.38341C5.55648 7.55892 5.78941 8.13421 5.68323 8.46085C5.61119 8.69216 5.44542 8.88717 5.33817 9.10006C5.16049 9.40774 5.27371 9.68077 5.50772 9.91695C5.91508 10.3519 6.21248 10.5529 6.76826 10.1851C7.04561 10.0258 7.26934 9.81294 7.59599 9.9527C7.778 10.0226 7.99305 10.1028 8.14202 10.2338C8.60897 10.7122 8.2314 11.515 9.16367 11.5697C10.8641 11.7067 9.6875 10.3211 11.117 9.95649C11.578 9.80969 11.9171 10.2647 12.3391 10.366C12.5417 10.4142 12.7416 10.3373 12.8987 10.2057C13.3602 9.8124 13.6197 9.50905 13.2481 8.91426C13.1333 8.70408 12.9919 8.50473 12.9827 8.27776C12.9859 7.98361 13.136 7.63259 13.3418 7.4457C13.8781 7.0443 14.5834 7.36444 14.6143 6.4728C14.6251 6.22416 14.6322 5.95657 14.5276 5.72634C14.3943 5.4452 14.0812 5.42732 13.7714 5.34336C13.65 5.31031 13.5265 5.26427 13.4209 5.19276C13.2031 5.04596 13.0785 4.78269 13.0103 4.53568C12.9225 4.24153 13.0314 4.04219 13.1766 3.79355C13.4913 3.2746 13.5693 3.01133 13.0742 2.54167C12.1566 1.58015 11.8668 3.01945 10.9199 2.56117C10.7184 2.47775 10.532 2.35858 10.4242 2.1744C10.1441 1.67495 10.3213 1.05199 9.5499 1.00974C9.23138 0.984279 8.78339 0.99024 8.58296 1.26272C8.48546 1.39868 8.45837 1.57473 8.42533 1.73995C8.38578 1.96097 8.31536 2.19769 8.12739 2.34774C7.87171 2.54004 7.55698 2.71068 7.22546 2.63539C6.96761 2.57092 6.70813 2.416 6.47683 2.30224C6.33653 2.22857 6.24119 2.18253 6.13881 2.19824L6.13176 2.19931H6.13285Z" stroke="black" stroke-linecap="round" stroke-linejoin="round"/>
<path d="M9.3487 8.50307C10.5714 8.50307 11.5626 7.51185 11.5626 6.28913C11.5626 5.06641 10.5714 4.0752 9.3487 4.0752C8.12598 4.0752 7.13477 5.06641 7.13477 6.28913C7.13477 7.51185 8.12598 8.50307 9.3487 8.50307Z" stroke="black" stroke-linecap="round" stroke-linejoin="round"/>
</svg>
