<svg width="31" height="22" viewBox="0 0 31 22" fill="none" xmlns="http://www.w3.org/2000/svg">
<path d="M15.4263 6.00392C16.8081 6.00392 17.9282 4.88376 17.9282 3.50196C17.9282 2.12017 16.8081 1 15.4263 1C14.0445 1 12.9243 2.12017 12.9243 3.50196C12.9243 4.88376 14.0445 6.00392 15.4263 6.00392Z" stroke="black" stroke-linecap="round" stroke-linejoin="round"/>
<path d="M10.4224 12.1104C10.4224 9.34674 12.6627 7.10742 15.4253 7.10742C18.1879 7.10742 20.4282 9.34772 20.4282 12.1104H10.4224Z" stroke="black" stroke-linecap="round" stroke-linejoin="round"/>
<path d="M6.07423 14.8936C7.45602 14.8936 8.57619 13.7734 8.57619 12.3916C8.57619 11.0098 7.45602 9.88965 6.07423 9.88965C4.69243 9.88965 3.57227 11.0098 3.57227 12.3916C3.57227 13.7734 4.69243 14.8936 6.07423 14.8936Z" stroke="black" stroke-linecap="round" stroke-linejoin="round"/>
<path d="M1.07129 21C1.07129 18.2364 3.31157 15.9971 6.07421 15.9971C8.83685 15.9971 11.0772 18.2374 11.0772 21H1.07129Z" stroke="black" stroke-linecap="round" stroke-linejoin="round"/>
<path d="M24.7778 14.8936C26.1596 14.8936 27.2798 13.7734 27.2798 12.3916C27.2798 11.0098 26.1596 9.88965 24.7778 9.88965C23.396 9.88965 22.2759 11.0098 22.2759 12.3916C22.2759 13.7734 23.396 14.8936 24.7778 14.8936Z" stroke="black" stroke-linecap="round" stroke-linejoin="round"/>
<path d="M19.7749 21C19.7749 18.2364 22.0152 15.9971 24.7778 15.9971C27.5405 15.9971 29.7808 18.2374 29.7808 21H19.7749Z" stroke="black" stroke-linecap="round" stroke-linejoin="round"/>
</svg>
