<svg width="21" height="22" viewBox="0 0 21 22" fill="none" xmlns="http://www.w3.org/2000/svg">
<path d="M4.66739 5.93066C4.61744 6.05053 4.60302 6.17483 4.60358 6.30468C4.60635 7.25302 4.61023 8.20137 4.60358 9.14972C4.59858 9.88942 4.90323 10.4149 5.57856 10.7545C6.53634 11.2362 7.52297 11.628 8.57231 11.8477C9.5312 12.048 10.4973 12.1218 11.4801 12.0425C12.7658 11.9387 13.9849 11.6091 15.1552 11.0803C15.5109 10.9193 15.8772 10.7734 16.1924 10.5392C16.5975 10.2379 16.8006 9.82893 16.7978 9.31619C16.7928 8.32623 16.795 7.33626 16.7978 6.34629C16.7978 6.20257 16.7823 6.06495 16.734 5.93066" stroke="black" stroke-linecap="round" stroke-linejoin="round"/>
<path d="M5.74756 19.2851C6.10104 19.1358 6.48171 19.1874 6.8485 19.1436C7.22696 19.0981 7.60929 19.0776 7.99051 19.0581C8.48994 19.0326 8.98159 19.1097 9.46437 19.2252C10.2074 19.4022 10.9432 19.6103 11.6879 19.7795C12.533 19.9715 13.2816 19.7501 13.9076 19.158C14.8426 18.2729 15.7643 17.3734 16.6927 16.4811C17.7587 15.4562 18.8219 14.4285 19.8928 13.4091C20.1775 13.1383 20.2724 12.8159 20.177 12.453C20.0099 11.8171 19.1937 11.4913 18.6254 11.9969C17.6776 12.8409 16.7404 13.6977 15.7987 14.5489C15.7948 14.5522 15.7854 14.5489 15.7782 14.5489" stroke="black" stroke-linecap="round" stroke-linejoin="round"/>
<path d="M4.29351 14.6328C4.18142 14.5157 4.12815 14.3687 4.08653 14.2172C3.97832 13.8221 3.68256 13.6317 3.25638 13.7455C2.64099 13.9097 2.02947 14.0945 1.42961 14.3076C1.0556 14.4408 0.929633 14.7493 1.03673 15.1095C1.3497 16.1582 1.68598 17.2004 2.00727 18.2469C2.23423 18.9861 2.45176 19.728 2.67261 20.4688C2.79248 20.87 3.16205 21.1042 3.5688 20.9549C4.11705 20.754 4.68806 20.617 5.24741 20.4472C5.70022 20.3101 5.78179 19.996 5.75793 19.6376C5.73129 19.2391 5.51377 18.9223 5.40778 18.5599C5.07095 17.4057 4.70415 16.2609 4.35955 15.1089C4.31904 14.973 4.25855 14.8259 4.31349 14.6744" stroke="black" stroke-linecap="round" stroke-linejoin="round"/>
<path d="M10.6899 17.1254C11.1954 17.1187 11.7015 17.1254 12.2059 17.0999C12.5594 17.0821 12.9062 16.9972 13.2231 16.8324C14.036 16.409 14.8468 15.9812 15.6525 15.5444C16.0127 15.3491 16.0903 14.8358 15.6353 14.5056C15.3884 14.3264 15.1309 14.1888 14.8229 14.1782C14.5266 14.1683 14.2397 14.2459 13.9506 14.2998C13.3352 14.4146 12.7192 14.5267 12.1022 14.6305C11.9396 14.6577 11.7803 14.59 11.6255 14.5478C10.6361 14.2754 9.64946 13.9935 8.65561 13.7382C7.64677 13.4791 6.68456 13.6072 5.74675 14.0306C5.27175 14.2448 4.8034 14.474 4.31396 14.6549" stroke="black" stroke-linecap="round" stroke-linejoin="round"/>
<path d="M10.6024 8.12564L2.01118 4.86996C1.78533 4.7845 1.78367 4.46487 2.00841 4.3772L10.6051 1.01831C10.6667 0.993896 10.7355 0.993896 10.7971 1.01831L19.3933 4.3772C19.6186 4.46543 19.6169 4.7845 19.3905 4.86996L10.7894 8.12564C10.7289 8.14839 10.6628 8.14839 10.6024 8.12564Z" stroke="black" stroke-linecap="round" stroke-linejoin="round"/>
</svg>
