<svg width="32" height="14" viewBox="0 0 32 14" fill="none" xmlns="http://www.w3.org/2000/svg">
<path d="M14.1728 2.53516C13.373 2.55666 10.464 2.60959 1.34766 2.60959" stroke="black" stroke-width="1.2" stroke-linecap="round" stroke-linejoin="round"/>
<path d="M17.0469 2.77344H24.7299" stroke="black" stroke-width="1.2" stroke-linecap="round" stroke-linejoin="round"/>
<path d="M8.94922 2.60938C10.1039 2.8145 11.4016 2.3232 11.9789 6.64814C12.1873 8.2064 12.5463 8.77215 13.1302 9.64226C14.4776 11.6496 17.126 11.3527 25.1522 10.9317" stroke="black" stroke-width="1.2" stroke-linecap="round" stroke-linejoin="round"/>
<path d="M29.108 5.41027C30.345 5.41027 31.3478 4.40748 31.3478 3.17047C31.3478 1.93346 30.345 0.930664 29.108 0.930664C27.871 0.930664 26.8682 1.93346 26.8682 3.17047C26.8682 4.40748 27.871 5.41027 29.108 5.41027Z" stroke="black" stroke-width="1.2" stroke-linecap="round" stroke-linejoin="round"/>
<path d="M29.108 13.0704C30.345 13.0704 31.3478 12.0676 31.3478 10.8306C31.3478 9.59362 30.345 8.59082 29.108 8.59082C27.871 8.59082 26.8682 9.59362 26.8682 10.8306C26.8682 12.0676 27.871 13.0704 29.108 13.0704Z" stroke="black" stroke-width="1.2" stroke-linecap="round" stroke-linejoin="round"/>
</svg>
