<svg width="22" height="22" viewBox="0 0 22 22" fill="none" xmlns="http://www.w3.org/2000/svg">
<path d="M18.12 1H3.88005C2.28944 1 1 2.28944 1 3.88005V18.12C1 19.7106 2.28944 21 3.88005 21H18.12C19.7106 21 21 19.7106 21 18.12V3.88005C21 2.28944 19.7106 1 18.12 1Z" stroke="black" stroke-width="1.2" stroke-miterlimit="10" stroke-linecap="round" stroke-linejoin="round"/>
<path d="M1 4.75977H21" stroke="black" stroke-width="1.2" stroke-miterlimit="10" stroke-linecap="round" stroke-linejoin="round"/>
<path d="M15.8216 13.6398H16.3574C16.7219 13.6398 17.0519 13.492 17.2911 13.2534C17.5298 13.0147 17.6776 12.6847 17.6776 12.3202C17.6776 11.5912 17.0864 11 16.3574 11H5.64195C5.27744 11 4.9474 11.1478 4.70874 11.387C4.46957 11.6256 4.32178 11.9557 4.32178 12.3202C4.32178 13.0492 4.91293 13.6398 5.64195 13.6398H13.4632" stroke="black" stroke-width="1.2" stroke-miterlimit="10" stroke-linecap="round" stroke-linejoin="round"/>
<path d="M14.0878 16.6217L14.8283 16.3271L15.4675 17.6092C15.6101 17.8948 15.9568 18.0108 16.2425 17.8687L16.6399 17.6703C16.9256 17.5277 17.0415 17.1809 16.8994 16.8953L16.3203 15.7339L16.9506 15.4832C17.3063 15.3417 17.3757 14.868 17.0754 14.6304L14.2883 12.4282C13.9661 12.1739 13.492 12.3969 13.4826 12.8074L13.4074 16.148C13.3995 16.5042 13.7572 16.7533 14.0883 16.6217H14.0878Z" stroke="black" stroke-width="1.2" stroke-miterlimit="10" stroke-linecap="round" stroke-linejoin="round"/>
</svg>
